Heavy.ufo
<glyph name="exclam" format="2">
  <advance width="350"/>
  <unicode hex="0021"/>
  <outline>
    <contour>
      <point x="105.0" y="55.0" type="curve" smooth="yes"/>
      <point x="105.0" y="93.0"/>
      <point x="134.0" y="125.0"/>
      <point x="175.0" y="125.0" type="curve" smooth="yes"/>
      <point x="216.0" y="125.0"/>
      <point x="245.0" y="93.0"/>
      <point x="245.0" y="55.0" type="curve" smooth="yes"/>
      <point x="245.0" y="17.0"/>
      <point x="216.0" y="-15.0"/>
      <point x="175.0" y="-15.0" type="curve" smooth="yes"/>
      <point x="134.0" y="-15.0"/>
      <point x="105.0" y="17.0"/>
    </contour>
    <contour>
      <point x="110.0" y="700.0" type="line"/>
      <point x="240.0" y="700.0" type="line"/>
      <point x="200.0" y="195.0" type="line"/>
      <point x="150.0" y="195.0" type="line"/>
    </contour>
  </outline>
</glyph>
<glyph name="quotedbl" format="2">
  <advance width="455"/>
  <unicode hex="0022"/>
  <outline>
    <contour>
      <point x="270.0" y="750.0" type="line"/>
      <point x="385.0" y="750.0" type="line"/>
      <point x="365.0" y="500.0" type="line"/>
      <point x="290.0" y="500.0" type="line"/>
    </contour>
    <contour>
      <point x="70.0" y="750.0" type="line"/>
      <point x="185.0" y="750.0" type="line"/>
      <point x="165.0" y="500.0" type="line"/>
      <point x="90.0" y="500.0" type="line"/>
    </contour>
  </outline>
</glyph>
<glyph name="numbersign" format="2">
  <advance width="605"/>
  <unicode hex="0023"/>
  <outline>
    <contour>
      <point x="60.0" y="440.0" type="line"/>
      <point x="60.0" y="525.0" type="line"/>
      <point x="575.0" y="525.0" type="line"/>
      <point x="575.0" y="440.0" type="line"/>
    </contour>
    <contour>
      <point x="30.0" y="180.0" type="line"/>
      <point x="30.0" y="265.0" type="line"/>
      <point x="545.0" y="265.0" type="line"/>
      <point x="545.0" y="180.0" type="line"/>
    </contour>
    <contour>
      <point x="425.0" y="700.0" type="line"/>
      <point x="520.0" y="700.0" type="line"/>
      <point x="390.0" y="0.0" type="line"/>
      <point x="295.0" y="0.0" type="line"/>
    </contour>
    <contour>
      <point x="215.0" y="700.0" type="line"/>
      <point x="310.0" y="700.0" type="line"/>
      <point x="180.0" y="0.0" type="line"/>
      <point x="85.0" y="0.0" type="line"/>
    </contour>
  </outline>
</glyph>
<glyph name="dollar" format="2">
  <advance width="765"/>
  <unicode hex="0024"/>
  <outline>
    <contour>
      <point x="445.0" y="740.0" type="line"/>
      <point x="485.0" y="740.0" type="line"/>
      <point x="485.0" y="-80.0" type="line"/>
      <point x="445.0" y="-80.0" type="line"/>
    </contour>
    <contour>
      <point x="305.0" y="740.0" type="line"/>
      <point x="345.0" y="740.0" type="line"/>
      <point x="345.0" y="-80.0" type="line"/>
      <point x="305.0" y="-80.0" type="line"/>
    </contour>
    <contour>
      <point x="118.0" y="163.0" type="line"/>
      <point x="184.0" y="119.0"/>
      <point x="281.0" y="78.0"/>
      <point x="395.0" y="78.0" type="curve" smooth="yes"/>
      <point x="510.0" y="78.0"/>
      <point x="606.0" y="123.0"/>
      <point x="606.0" y="206.0" type="curve" smooth="yes"/>
      <point x="606.0" y="288.0"/>
      <point x="537.669921875" y="296.068359375"/>
      <point x="398.0" y="308.0" type="curve" smooth="yes"/>
      <point x="213.993164062" y="323.719726562"/>
      <point x="97.0" y="374.0"/>
      <point x="97.0" y="501.0" type="curve" smooth="yes"/>
      <point x="97.0" y="635.0"/>
      <point x="211.0" y="710.0"/>
      <point x="400.0" y="710.0" type="curve" smooth="yes"/>
      <point x="533.0" y="710.0"/>
      <point x="618.0" y="664.0"/>
      <point x="693.0" y="611.0" type="curve"/>
      <point x="636.0" y="531.0" type="line"/>
      <point x="589.0" y="573.0"/>
      <point x="492.0" y="620.0"/>
      <point x="390.0" y="620.0" type="curve" smooth="yes"/>
      <point x="284.0" y="620.0"/>
      <point x="202.0" y="579.0"/>
      <point x="202.0" y="507.0" type="curve" smooth="yes"/>
      <point x="202.0" y="426.0"/>
      <point x="298.137695312" y="409.642578125"/>
      <point x="428.0" y="398.0" type="curve" smooth="yes"/>
      <point x="591.368164062" y="383.353515625"/>
      <point x="715.0" y="352.0"/>
      <point x="715.0" y="210.0" type="curve" smooth="yes"/>
      <point x="715.0" y="62.0"/>
      <point x="571.0" y="-10.0"/>
      <point x="400.0" y="-10.0" type="curve" smooth="yes"/>
      <point x="236.0" y="-10.0"/>
      <point x="125.0" y="43.0"/>
      <point x="70.0" y="87.0" type="curve"/>
    </contour>
  </outline>
</glyph>
<glyph name="percent" format="2">
  <advance width="921"/>
  <unicode hex="0025"/>
  <outline>
    <contour>
      <point x="520.0" y="170.0" type="curve" smooth="yes"/>
      <point x="520.0" y="264.0"/>
      <point x="583.0" y="350.0"/>
      <point x="698.0" y="350.0" type="curve" smooth="yes"/>
      <point x="813.0" y="350.0"/>
      <point x="876.0" y="264.0"/>
      <point x="876.0" y="170.0" type="curve" smooth="yes"/>
      <point x="876.0" y="76.0"/>
      <point x="813.0" y="-10.0"/>
      <point x="698.0" y="-10.0" type="curve" smooth="yes"/>
      <point x="583.0" y="-10.0"/>
      <point x="520.0" y="76.0"/>
    </contour>
    <contour>
      <point x="611.0" y="170.0" type="curve" smooth="yes"/>
      <point x="611.0" y="119.0"/>
      <point x="643.0" y="75.0"/>
      <point x="698.0" y="75.0" type="curve" smooth="yes"/>
      <point x="753.0" y="75.0"/>
      <point x="785.0" y="119.0"/>
      <point x="785.0" y="170.0" type="curve" smooth="yes"/>
      <point x="785.0" y="221.0"/>
      <point x="753.0" y="265.0"/>
      <point x="698.0" y="265.0" type="curve" smooth="yes"/>
      <point x="643.0" y="265.0"/>
      <point x="611.0" y="221.0"/>
    </contour>
    <contour>
      <point x="45.0" y="530.0" type="curve" smooth="yes"/>
      <point x="45.0" y="624.0"/>
      <point x="108.0" y="710.0"/>
      <point x="223.0" y="710.0" type="curve" smooth="yes"/>
      <point x="338.0" y="710.0"/>
      <point x="401.0" y="624.0"/>
      <point x="401.0" y="530.0" type="curve" smooth="yes"/>
      <point x="401.0" y="436.0"/>
      <point x="338.0" y="350.0"/>
      <point x="223.0" y="350.0" type="curve" smooth="yes"/>
      <point x="108.0" y="350.0"/>
      <point x="45.0" y="436.0"/>
    </contour>
    <contour>
      <point x="136.0" y="530.0" type="curve" smooth="yes"/>
      <point x="136.0" y="479.0"/>
      <point x="168.0" y="435.0"/>
      <point x="223.0" y="435.0" type="curve" smooth="yes"/>
      <point x="278.0" y="435.0"/>
      <point x="310.0" y="479.0"/>
      <point x="310.0" y="530.0" type="curve" smooth="yes"/>
      <point x="310.0" y="581.0"/>
      <point x="278.0" y="625.0"/>
      <point x="223.0" y="625.0" type="curve" smooth="yes"/>
      <point x="168.0" y="625.0"/>
      <point x="136.0" y="581.0"/>
    </contour>
    <contour>
      <point x="683.0" y="700.0" type="line"/>
      <point x="798.0" y="700.0" type="line"/>
      <point x="238.0" y="0.0" type="line"/>
      <point x="123.0" y="0.0" type="line"/>
    </contour>
  </outline>
</glyph>
<glyph name="ampersand" format="2">
  <advance width="817"/>
  <unicode hex="0026"/>
  <outline>
    <contour>
      <point x="598.0" y="185.0" type="curve" smooth="yes"/>
      <point x="527.931640625" y="53.8837890625"/>
      <point x="420.0" y="-10.0"/>
      <point x="295.0" y="-10.0" type="curve" smooth="yes"/>
      <point x="160.0" y="-10.0"/>
      <point x="35.0" y="65.0"/>
      <point x="35.0" y="204.0" type="curve" smooth="yes"/>
      <point x="35.0" y="358.0"/>
      <point x="160.0" y="430.0"/>
      <point x="295.0" y="430.0" type="curve" smooth="yes"/>
      <point x="420.0" y="430.0"/>
      <point x="520.100585938" y="339.108398438"/>
      <point x="577.0" y="238.0" type="curve" smooth="yes"/>
      <point x="640.168945312" y="125.751953125"/>
      <point x="677.0" y="101.0"/>
      <point x="782.0" y="101.0" type="curve"/>
      <point x="782.0" y="0.0" type="line"/>
      <point x="627.0" y="0.0"/>
      <point x="578.104492188" y="57.2626953125"/>
      <point x="500.0" y="185.0" type="curve" smooth="yes"/>
      <point x="450.108398438" y="266.595703125"/>
      <point x="378.0" y="350.0"/>
      <point x="283.0" y="350.0" type="curve" smooth="yes"/>
      <point x="208.0" y="350.0"/>
      <point x="150.0" y="300.0"/>
      <point x="150.0" y="213.0" type="curve" smooth="yes"/>
      <point x="150.0" y="128.0"/>
      <point x="205.0" y="85.0"/>
      <point x="295.0" y="85.0" type="curve" smooth="yes"/>
      <point x="394.0" y="85.0"/>
      <point x="468.762695312" y="138.811523438"/>
      <point x="526.0" y="235.0" type="curve" smooth="yes"/>
      <point x="586.16796875" y="336.11328125"/>
      <point x="657.0" y="440.0"/>
      <point x="782.0" y="460.0" type="curve"/>
      <point x="782.0" y="360.0" type="line"/>
      <point x="697.0" y="350.0"/>
      <point x="632.267578125" y="249.123046875"/>
    </contour>
    <contour>
      <point x="127.0" y="540.0" type="curve" smooth="yes"/>
      <point x="127.0" y="644.0"/>
      <point x="215.0" y="715.0"/>
      <point x="340.0" y="715.0" type="curve" smooth="yes"/>
      <point x="465.0" y="715.0"/>
      <point x="553.0" y="644.0"/>
      <point x="553.0" y="540.0" type="curve" smooth="yes"/>
      <point x="553.0" y="436.0"/>
      <point x="465.0" y="380.0"/>
      <point x="340.0" y="380.0" type="curve" smooth="yes"/>
      <point x="215.0" y="380.0"/>
      <point x="127.0" y="436.0"/>
    </contour>
    <contour>
      <point x="228.0" y="535.0" type="curve" smooth="yes"/>
      <point x="228.0" y="474.0"/>
      <point x="278.0" y="445.0"/>
      <point x="340.0" y="445.0" type="curve" smooth="yes"/>
      <point x="402.0" y="445.0"/>
      <point x="452.0" y="474.0"/>
      <point x="452.0" y="535.0" type="curve" smooth="yes"/>
      <point x="452.0" y="596.0"/>
      <point x="402.0" y="630.0"/>
      <point x="340.0" y="630.0" type="curve" smooth="yes"/>
      <point x="278.0" y="630.0"/>
      <point x="228.0" y="596.0"/>
    </contour>
  </outline>
</glyph>
<glyph name="quotesingle" format="2">
  <advance width="255"/>
  <unicode hex="0027"/>
  <outline>
    <contour>
      <point x="80.0" y="750.0" type="line"/>
      <point x="195.0" y="750.0" type="line"/>
      <point x="165.0" y="500.0" type="line"/>
      <point x="90.0" y="500.0" type="line"/>
    </contour>
  </outline>
</glyph>
<glyph name="parenleft" format="2">
  <advance width="325"/>
  <unicode hex="0028"/>
  <outline>
    <contour>
      <point x="205.0" y="780.0" type="curve"/>
      <point x="305.0" y="780.0" type="line"/>
      <point x="225.0" y="630.0"/>
      <point x="175.0" y="480.0"/>
      <point x="175.0" y="290.0" type="curve" smooth="yes"/>
      <point x="175.0" y="100.0"/>
      <point x="225.0" y="-50.0"/>
      <point x="305.0" y="-200.0" type="curve"/>
      <point x="205.0" y="-200.0" type="line"/>
      <point x="115.0" y="-50.0"/>
      <point x="60.0" y="80.0"/>
      <point x="60.0" y="290.0" type="curve" smooth="yes"/>
      <point x="60.0" y="500.0"/>
      <point x="115.0" y="630.0"/>
    </contour>
  </outline>
</glyph>
<glyph name="parenright" format="2">
  <advance width="325"/>
  <unicode hex="0029"/>
  <outline>
    <contour>
      <point x="120.0" y="-200.0" type="curve"/>
      <point x="20.0" y="-200.0" type="line"/>
      <point x="100.0" y="-50.0"/>
      <point x="150.0" y="100.0"/>
      <point x="150.0" y="290.0" type="curve" smooth="yes"/>
      <point x="150.0" y="480.0"/>
      <point x="100.0" y="630.0"/>
      <point x="20.0" y="780.0" type="curve"/>
      <point x="120.0" y="780.0" type="line"/>
      <point x="210.0" y="630.0"/>
      <point x="265.0" y="500.0"/>
      <point x="265.0" y="290.0" type="curve" smooth="yes"/>
      <point x="265.0" y="80.0"/>
      <point x="210.0" y="-50.0"/>
    </contour>
  </outline>
</glyph>
<glyph name="asterisk" format="2">
  <advance width="483"/>
  <unicode hex="002A"/>
  <outline>
    <contour>
      <point x="406.0" y="619.0" type="line"/>
      <point x="441.0" y="514.0" type="line"/>
      <point x="247.0" y="483.0" type="line"/>
      <point x="232.0" y="531.0" type="line"/>
    </contour>
    <contour>
      <point x="397.0" y="395.0" type="line"/>
      <point x="308.0" y="329.0" type="line"/>
      <point x="219.0" y="504.0" type="line"/>
      <point x="260.0" y="533.0" type="line"/>
    </contour>
    <contour>
      <point x="182.0" y="326.0" type="line"/>
      <point x="92.0" y="391.0" type="line"/>
      <point x="230.0" y="530.0" type="line"/>
      <point x="271.0" y="500.0" type="line"/>
    </contour>
    <contour>
      <point x="43.0" y="513.0" type="line"/>
      <point x="77.0" y="618.0" type="line"/>
      <point x="252.0" y="529.0" type="line"/>
      <point x="236.0" y="481.0" type="line"/>
    </contour>
    <contour>
      <point x="189.0" y="700.0" type="line"/>
      <point x="299.0" y="700.0" type="line"/>
      <point x="269.0" y="505.0" type="line"/>
      <point x="219.0" y="505.0" type="line"/>
    </contour>
  </outline>
</glyph>
<glyph name="comma" format="2">
  <advance height="2000" width="307"/>
  <unicode hex="002C"/>
  <outline>
    <contour>
      <point x="75.0" y="54.0" type="curve" smooth="yes"/>
      <point x="75.0" y="95.0"/>
      <point x="111.0" y="125.0"/>
      <point x="152.0" y="125.0" type="curve" smooth="yes"/>
      <point x="200.0" y="125.0"/>
      <point x="232.0" y="90.0"/>
      <point x="232.0" y="34.0" type="curve" smooth="yes"/>
      <point x="232.0" y="-52.0"/>
      <point x="193.0" y="-131.0"/>
      <point x="123.0" y="-146.0" type="curve"/>
      <point x="123.0" y="-109.0" type="line"/>
      <point x="158.0" y="-88.0"/>
      <point x="178.0" y="-42.0"/>
      <point x="178.0" y="19.0" type="curve"/>
      <point x="201.0" y="19.0" type="line"/>
      <point x="201.0" y="14.0"/>
      <point x="190.0" y="-15.0"/>
      <point x="148.0" y="-15.0" type="curve" smooth="yes"/>
      <point x="102.0" y="-15.0"/>
      <point x="75.0" y="13.0"/>
    </contour>
  </outline>
</glyph>
<glyph name="hyphen" format="2">
  <advance width="320"/>
  <unicode hex="002D"/>
  <outline>
    <contour>
      <point x="20.0" y="235.0" type="line"/>
      <point x="20.0" y="335.0" type="line"/>
      <point x="300.0" y="335.0" type="line"/>
      <point x="300.0" y="235.0" type="line"/>
    </contour>
  </outline>
</glyph>
<glyph name="period" format="2">
  <advance width="300"/>
  <unicode hex="002E"/>
  <outline>
    <contour>
      <point x="80.0" y="55.0" type="curve" smooth="yes"/>
      <point x="80.0" y="93.0"/>
      <point x="109.0" y="125.0"/>
      <point x="150.0" y="125.0" type="curve" smooth="yes"/>
      <point x="191.0" y="125.0"/>
      <point x="220.0" y="93.0"/>
      <point x="220.0" y="55.0" type="curve" smooth="yes"/>
      <point x="220.0" y="17.0"/>
      <point x="191.0" y="-15.0"/>
      <point x="150.0" y="-15.0" type="curve" smooth="yes"/>
      <point x="109.0" y="-15.0"/>
      <point x="80.0" y="17.0"/>
    </contour>
  </outline>
</glyph>
<glyph name="zero" format="2">
  <advance width="810"/>
  <unicode hex="0030"/>
  <outline>
    <contour>
      <point x="160.0" y="350.0" type="curve" smooth="yes"/>
      <point x="160.0" y="186.0"/>
      <point x="272.0" y="90.0"/>
      <point x="405.0" y="90.0" type="curve" smooth="yes"/>
      <point x="538.0" y="90.0"/>
      <point x="650.0" y="186.0"/>
      <point x="650.0" y="350.0" type="curve" smooth="yes"/>
      <point x="650.0" y="514.0"/>
      <point x="538.0" y="610.0"/>
      <point x="405.0" y="610.0" type="curve" smooth="yes"/>
      <point x="272.0" y="610.0"/>
      <point x="160.0" y="514.0"/>
    </contour>
    <contour>
      <point x="45.0" y="350.0" type="curve" smooth="yes"/>
      <point x="45.0" y="574.0"/>
      <point x="216.0" y="710.0"/>
      <point x="405.0" y="710.0" type="curve" smooth="yes"/>
      <point x="594.0" y="710.0"/>
      <point x="765.0" y="574.0"/>
      <point x="765.0" y="350.0" type="curve" smooth="yes"/>
      <point x="765.0" y="126.0"/>
      <point x="594.0" y="-10.0"/>
      <point x="405.0" y="-10.0" type="curve" smooth="yes"/>
      <point x="216.0" y="-10.0"/>
      <point x="45.0" y="126.0"/>
    </contour>
  </outline>
</glyph>
<glyph name="one" format="2">
  <advance width="472"/>
  <unicode hex="0031"/>
  <outline>
    <contour>
      <point x="100.0" y="495.0" type="line"/>
      <point x="100.0" y="610.0" type="line"/>
      <point x="215.0" y="660.0" type="line"/>
      <point x="215.0" y="545.0" type="line"/>
    </contour>
    <contour>
      <point x="212.0" y="700.0" type="line"/>
      <point x="332.0" y="700.0" type="line"/>
      <point x="332.0" y="0.0" type="line"/>
      <point x="212.0" y="0.0" type="line"/>
    </contour>
  </outline>
</glyph>
<glyph name="two" format="2">
  <advance width="695"/>
  <unicode hex="0032"/>
  <outline>
    <contour>
      <point x="30.0" y="0.0" type="line"/>
      <point x="131.0" y="100.0" type="line"/>
      <point x="665.0" y="100.0" type="line"/>
      <point x="665.0" y="0.0" type="line"/>
    </contour>
    <contour>
      <point x="30.0" y="0.0" type="line"/>
      <point x="30.0" y="240.0"/>
      <point x="232.122070312" y="300.587890625"/>
      <point x="362.0" y="360.0" type="curve" smooth="yes"/>
      <point x="417.864257812" y="385.5546875"/>
      <point x="517.0" y="425.0"/>
      <point x="517.0" y="511.0" type="curve" smooth="yes"/>
      <point x="517.0" y="572.0"/>
      <point x="470.0" y="611.0"/>
      <point x="378.0" y="611.0" type="curve" smooth="yes"/>
      <point x="278.0" y="611.0"/>
      <point x="197.0" y="552.0"/>
      <point x="147.0" y="476.0" type="curve"/>
      <point x="72.0" y="546.0" type="line"/>
      <point x="142.0" y="645.0"/>
      <point x="241.0" y="711.0"/>
      <point x="378.0" y="711.0" type="curve" smooth="yes"/>
      <point x="555.0" y="711.0"/>
      <point x="630.0" y="612.0"/>
      <point x="630.0" y="508.0" type="curve" smooth="yes"/>
      <point x="630.0" y="386.0"/>
      <point x="546.068359375" y="330.010742188"/>
      <point x="440.0" y="284.0" type="curve" smooth="yes"/>
      <point x="328.74609375" y="235.740234375"/>
      <point x="194.0" y="200.0"/>
      <point x="164.0" y="90.0" type="curve"/>
    </contour>
  </outline>
</glyph>
<glyph name="three" format="2">
  <advance width="747"/>
  <unicode hex="0033"/>
  <outline>
    <contour>
      <point x="300.0" y="352.0" type="curve"/>
      <point x="300.0" y="420.0" type="line"/>
      <point x="480.0" y="420.0"/>
      <point x="545.0" y="456.0"/>
      <point x="545.0" y="520.0" type="curve" smooth="yes"/>
      <point x="545.0" y="582.0"/>
      <point x="490.0" y="616.0"/>
      <point x="400.0" y="616.0" type="curve" smooth="yes"/>
      <point x="305.0" y="616.0"/>
      <point x="210.0" y="563.0"/>
      <point x="162.0" y="492.0" type="curve"/>
      <point x="91.0" y="566.0" type="line"/>
      <point x="160.0" y="664.0"/>
      <point x="279.0" y="710.0"/>
      <point x="394.0" y="710.0" type="curve" smooth="yes"/>
      <point x="564.0" y="710.0"/>
      <point x="667.0" y="636.0"/>
      <point x="667.0" y="534.0" type="curve" smooth="yes"/>
      <point x="667.0" y="395.0"/>
      <point x="485.0" y="352.0"/>
    </contour>
    <contour>
      <point x="390.0" y="-10.0" type="curve" smooth="yes"/>
      <point x="205.0" y="-10.0"/>
      <point x="114.0" y="64.0"/>
      <point x="64.0" y="105.0" type="curve"/>
      <point x="119.0" y="204.0" type="line"/>
      <point x="159.0" y="150.0"/>
      <point x="250.0" y="90.0"/>
      <point x="380.0" y="90.0" type="curve" smooth="yes"/>
      <point x="520.0" y="90.0"/>
      <point x="583.0" y="139.0"/>
      <point x="583.0" y="215.0" type="curve" smooth="yes"/>
      <point x="583.0" y="301.0"/>
      <point x="500.0" y="332.0"/>
      <point x="300.0" y="332.0" type="curve"/>
      <point x="300.0" y="400.0" type="line"/>
      <point x="525.0" y="400.0"/>
      <point x="702.0" y="355.0"/>
      <point x="702.0" y="206.0" type="curve" smooth="yes"/>
      <point x="702.0" y="69.0"/>
      <point x="565.0" y="-10.0"/>
    </contour>
  </outline>
</glyph>
<glyph name="four" format="2">
  <advance width="723"/>
  <unicode hex="0034"/>
  <outline>
    <contour>
      <point x="30.0" y="130.0" type="line"/>
      <point x="30.0" y="210.0" type="line"/>
      <point x="458.0" y="700.0" type="line"/>
      <point x="573.0" y="700.0" type="line"/>
      <point x="573.0" y="0.0" type="line"/>
      <point x="463.0" y="0.0" type="line"/>
      <point x="463.0" y="176.0" type="line"/>
      <point x="463.0" y="187.0" type="line"/>
      <point x="463.0" y="570.0" type="line"/>
      <point x="167.0" y="230.0" type="line"/>
      <point x="498.0" y="230.0" type="line"/>
      <point x="515.0" y="230.0" type="line"/>
      <point x="683.0" y="230.0" type="line"/>
      <point x="683.0" y="130.0" type="line"/>
    </contour>
  </outline>
</glyph>
<glyph name="five" format="2">
  <advance width="732"/>
  <unicode hex="0035"/>
  <outline>
    <contour>
      <point x="682.0" y="240.0" type="curve" smooth="yes"/>
      <point x="682.0" y="71.0"/>
      <point x="551.0" y="-10.0"/>
      <point x="376.0" y="-10.0" type="curve" smooth="yes"/>
      <point x="217.0" y="-10.0"/>
      <point x="104.0" y="65.0"/>
      <point x="58.0" y="127.0" type="curve"/>
      <point x="122.0" y="200.0" type="line"/>
      <point x="163.0" y="155.0"/>
      <point x="249.0" y="90.0"/>
      <point x="376.0" y="90.0" type="curve" smooth="yes"/>
      <point x="486.0" y="90.0"/>
      <point x="569.0" y="144.0"/>
      <point x="569.0" y="240.0" type="curve" smooth="yes"/>
      <point x="569.0" y="336.0"/>
      <point x="486.0" y="386.0"/>
      <point x="396.0" y="386.0" type="curve" smooth="yes"/>
      <point x="309.0" y="386.0"/>
      <point x="227.0" y="363.0"/>
      <point x="156.0" y="306.0" type="curve"/>
      <point x="85.0" y="380.0" type="line"/>
      <point x="85.0" y="700.0" type="line"/>
      <point x="629.0" y="700.0" type="line"/>
      <point x="629.0" y="600.0" type="line"/>
      <point x="185.0" y="600.0" type="line"/>
      <point x="185.0" y="423.0" type="line"/>
      <point x="218.0" y="440.0"/>
      <point x="277.0" y="486.0"/>
      <point x="402.0" y="486.0" type="curve" smooth="yes"/>
      <point x="562.0" y="486.0"/>
      <point x="682.0" y="389.0"/>
    </contour>
  </outline>
</glyph>
<glyph name="six" format="2">
  <advance height="2309" width="694"/>
  <unicode hex="0036"/>
  <outline>
    <contour>
      <point x="394.0" y="610.0" type="curve"/>
      <point x="404.0" y="710.0" type="line"/>
      <point x="494.0" y="710.0"/>
      <point x="568.0" y="676.0"/>
      <point x="622.0" y="637.0" type="curve"/>
      <point x="568.0" y="556.0" type="line"/>
      <point x="526.0" y="582.0"/>
      <point x="464.0" y="610.0"/>
    </contour>
    <contour>
      <point x="549.0" y="240.0" type="curve" smooth="yes"/>
      <point x="549.0" y="333.0"/>
      <point x="457.0" y="370.0"/>
      <point x="368.0" y="370.0" type="curve" smooth="yes"/>
      <point x="285.0" y="370.0"/>
      <point x="169.0" y="341.0"/>
      <point x="169.0" y="231.0" type="curve"/>
      <point x="118.0" y="280.0" type="line"/>
      <point x="118.0" y="397.0"/>
      <point x="249.0" y="470.0"/>
      <point x="380.0" y="470.0" type="curve" smooth="yes"/>
      <point x="491.0" y="470.0"/>
      <point x="659.0" y="413.0"/>
      <point x="659.0" y="240.0" type="curve" smooth="yes"/>
      <point x="659.0" y="80.0"/>
      <point x="544.0" y="-10.0"/>
      <point x="373.0" y="-10.0" type="curve" smooth="yes"/>
      <point x="182.0" y="-10.0"/>
      <point x="35.0" y="100.0"/>
      <point x="35.0" y="330.0" type="curve" smooth="yes"/>
      <point x="35.0" y="563.0"/>
      <point x="182.0" y="710.0"/>
      <point x="404.0" y="710.0" type="curve"/>
      <point x="394.0" y="610.0" type="line"/>
      <point x="250.0" y="610.0"/>
      <point x="138.0" y="522.0"/>
      <point x="138.0" y="350.0" type="curve"/>
      <point x="169.0" y="231.0" type="line"/>
      <point x="169.0" y="137.0"/>
      <point x="264.0" y="90.0"/>
      <point x="373.0" y="90.0" type="curve" smooth="yes"/>
      <point x="472.0" y="90.0"/>
      <point x="549.0" y="136.0"/>
    </contour>
  </outline>
</glyph>
<glyph name="seven" format="2">
  <advance width="679"/>
  <unicode hex="0037"/>
  <outline>
    <contour>
      <point x="30.0" y="600.0" type="line"/>
      <point x="30.0" y="700.0" type="line"/>
      <point x="649.0" y="700.0" type="line"/>
      <point x="649.0" y="601.0" type="line"/>
      <point x="283.0" y="0.0" type="line"/>
      <point x="152.0" y="0.0" type="line"/>
      <point x="529.0" y="600.0" type="line"/>
    </contour>
  </outline>
</glyph>
<glyph name="eight" format="2">
  <advance width="746"/>
  <unicode hex="0038"/>
  <outline>
    <contour>
      <point x="70.0" y="524.0" type="curve" smooth="yes"/>
      <point x="70.0" y="633.0"/>
      <point x="193.0" y="710.0"/>
      <point x="373.0" y="710.0" type="curve" smooth="yes"/>
      <point x="553.0" y="710.0"/>
      <point x="676.0" y="633.0"/>
      <point x="676.0" y="524.0" type="curve" smooth="yes"/>
      <point x="676.0" y="405.0"/>
      <point x="558.0" y="350.0"/>
      <point x="373.0" y="350.0" type="curve" smooth="yes"/>
      <point x="188.0" y="350.0"/>
      <point x="70.0" y="405.0"/>
    </contour>
    <contour>
      <point x="176.0" y="521.0" type="curve" smooth="yes"/>
      <point x="176.0" y="460.0"/>
      <point x="263.0" y="415.0"/>
      <point x="373.0" y="415.0" type="curve" smooth="yes"/>
      <point x="483.0" y="415.0"/>
      <point x="570.0" y="460.0"/>
      <point x="570.0" y="521.0" type="curve" smooth="yes"/>
      <point x="570.0" y="582.0"/>
      <point x="488.0" y="615.0"/>
      <point x="373.0" y="615.0" type="curve" smooth="yes"/>
      <point x="258.0" y="615.0"/>
      <point x="176.0" y="582.0"/>
    </contour>
    <contour>
      <point x="45.0" y="195.0" type="curve" smooth="yes"/>
      <point x="45.0" y="324.0"/>
      <point x="188.0" y="395.0"/>
      <point x="373.0" y="395.0" type="curve" smooth="yes"/>
      <point x="558.0" y="395.0"/>
      <point x="701.0" y="324.0"/>
      <point x="701.0" y="195.0" type="curve" smooth="yes"/>
      <point x="701.0" y="76.0"/>
      <point x="568.0" y="-10.0"/>
      <point x="373.0" y="-10.0" type="curve" smooth="yes"/>
      <point x="178.0" y="-10.0"/>
      <point x="45.0" y="76.0"/>
    </contour>
    <contour>
      <point x="161.0" y="205.0" type="curve" smooth="yes"/>
      <point x="161.0" y="129.0"/>
      <point x="243.0" y="85.0"/>
      <point x="373.0" y="85.0" type="curve" smooth="yes"/>
      <point x="503.0" y="85.0"/>
      <point x="585.0" y="129.0"/>
      <point x="585.0" y="205.0" type="curve" smooth="yes"/>
      <point x="585.0" y="271.0"/>
      <point x="513.0" y="330.0"/>
      <point x="373.0" y="330.0" type="curve" smooth="yes"/>
      <point x="233.0" y="330.0"/>
      <point x="161.0" y="271.0"/>
    </contour>
  </outline>
</glyph>
<glyph name="nine" format="2">
  <advance height="2309" width="717"/>
  <unicode hex="0039"/>
  <outline>
    <contour>
      <point x="318.0" y="90.0" type="curve"/>
      <point x="321.0" y="-10.0" type="line"/>
      <point x="221.0" y="-10.0"/>
      <point x="114.0" y="35.0"/>
      <point x="50.0" y="84.0" type="curve"/>
      <point x="104.0" y="165.0" type="line"/>
      <point x="156.0" y="129.0"/>
      <point x="238.0" y="90.0"/>
    </contour>
    <contour>
      <point x="168.0" y="460.0" type="curve" smooth="yes"/>
      <point x="168.0" y="367.0"/>
      <point x="260.0" y="330.0"/>
      <point x="349.0" y="330.0" type="curve" smooth="yes"/>
      <point x="432.0" y="330.0"/>
      <point x="548.0" y="359.0"/>
      <point x="548.0" y="469.0" type="curve"/>
      <point x="599.0" y="420.0" type="line"/>
      <point x="599.0" y="303.0"/>
      <point x="468.0" y="230.0"/>
      <point x="337.0" y="230.0" type="curve" smooth="yes"/>
      <point x="226.0" y="230.0"/>
      <point x="58.0" y="287.0"/>
      <point x="58.0" y="460.0" type="curve" smooth="yes"/>
      <point x="58.0" y="620.0"/>
      <point x="173.0" y="710.0"/>
      <point x="344.0" y="710.0" type="curve" smooth="yes"/>
      <point x="535.0" y="710.0"/>
      <point x="682.0" y="600.0"/>
      <point x="682.0" y="370.0" type="curve" smooth="yes"/>
      <point x="682.0" y="137.0"/>
      <point x="543.0" y="-10.0"/>
      <point x="321.0" y="-10.0" type="curve"/>
      <point x="318.0" y="90.0" type="line"/>
      <point x="462.0" y="90.0"/>
      <point x="579.0" y="178.0"/>
      <point x="579.0" y="350.0" type="curve"/>
      <point x="548.0" y="469.0" type="line"/>
      <point x="548.0" y="563.0"/>
      <point x="453.0" y="610.0"/>
      <point x="344.0" y="610.0" type="curve" smooth="yes"/>
      <point x="245.0" y="610.0"/>
      <point x="168.0" y="564.0"/>
    </contour>
  </outline>
</glyph>
<glyph name="less" format="2">
  <advance width="640"/>
  <unicode hex="003C"/>
  <outline>
    <contour>
      <point x="217.0" y="262.0" type="line"/>
      <point x="575.0" y="105.0" type="line"/>
      <point x="575.0" y="5.0" type="line"/>
      <point x="65.0" y="225.0" type="line"/>
      <point x="65.0" y="290.0" type="line"/>
      <point x="575.0" y="510.0" type="line"/>
      <point x="575.0" y="410.0" type="line"/>
    </contour>
  </outline>
</glyph>
<glyph name="equal" format="2">
  <advance width="615"/>
  <unicode hex="003D"/>
  <outline>
    <contour>
      <point x="65.0" y="115.0" type="line"/>
      <point x="65.0" y="215.0" type="line"/>
      <point x="550.0" y="215.0" type="line"/>
      <point x="550.0" y="115.0" type="line"/>
    </contour>
    <contour>
      <point x="65.0" y="290.0" type="line"/>
      <point x="65.0" y="390.0" type="line"/>
      <point x="550.0" y="390.0" type="line"/>
      <point x="550.0" y="290.0" type="line"/>
    </contour>
  </outline>
</glyph>
<glyph name="greater" format="2">
  <advance width="640"/>
  <unicode hex="003E"/>
  <outline>
    <contour>
      <point x="423.0" y="253.0" type="line"/>
      <point x="65.0" y="410.0" type="line"/>
      <point x="65.0" y="510.0" type="line"/>
      <point x="575.0" y="290.0" type="line"/>
      <point x="575.0" y="225.0" type="line"/>
      <point x="65.0" y="5.0" type="line"/>
      <point x="65.0" y="105.0" type="line"/>
    </contour>
  </outline>
</glyph>
<glyph name="question" format="2">
  <advance width="557"/>
  <unicode hex="003F"/>
  <outline>
    <contour>
      <point x="190.0" y="55.0" type="curve" smooth="yes"/>
      <point x="190.0" y="93.0"/>
      <point x="219.0" y="125.0"/>
      <point x="260.0" y="125.0" type="curve" smooth="yes"/>
      <point x="301.0" y="125.0"/>
      <point x="330.0" y="93.0"/>
      <point x="330.0" y="55.0" type="curve" smooth="yes"/>
      <point x="330.0" y="17.0"/>
      <point x="301.0" y="-15.0"/>
      <point x="260.0" y="-15.0" type="curve" smooth="yes"/>
      <point x="219.0" y="-15.0"/>
      <point x="190.0" y="17.0"/>
    </contour>
    <contour>
      <point x="367.0" y="549.0" type="curve" smooth="yes"/>
      <point x="367.0" y="597.0"/>
      <point x="329.0" y="622.0"/>
      <point x="276.0" y="622.0" type="curve" smooth="yes"/>
      <point x="222.0" y="622.0"/>
      <point x="171.0" y="589.0"/>
      <point x="135.0" y="530.0" type="curve"/>
      <point x="64.0" y="583.0" type="line"/>
      <point x="110.0" y="663.0"/>
      <point x="180.0" y="710.0"/>
      <point x="289.0" y="710.0" type="curve" smooth="yes"/>
      <point x="394.0" y="710.0"/>
      <point x="477.0" y="650.0"/>
      <point x="477.0" y="551.0" type="curve" smooth="yes"/>
      <point x="477.0" y="382.0"/>
      <point x="297.0" y="426.0"/>
      <point x="297.0" y="234.0" type="curve" smooth="yes"/>
      <point x="297.0" y="225.0"/>
      <point x="298.0" y="206.0"/>
      <point x="302.0" y="195.0" type="curve"/>
      <point x="217.0" y="195.0" type="line"/>
      <point x="215.0" y="213.0"/>
      <point x="213.0" y="229.0"/>
      <point x="213.0" y="247.0" type="curve" smooth="yes"/>
      <point x="213.0" y="457.0"/>
      <point x="367.0" y="429.0"/>
    </contour>
  </outline>
</glyph>
<glyph name="at" format="2">
  <advance width="770"/>
  <unicode hex="0040"/>
  <outline>
    <contour>
      <point x="276.0" y="320.0" type="curve" smooth="yes"/>
      <point x="276.0" y="271.0"/>
      <point x="305.0" y="250.0"/>
      <point x="348.0" y="250.0" type="curve" smooth="yes"/>
      <point x="398.0" y="250.0"/>
      <point x="445.0" y="264.0"/>
      <point x="445.0" y="370.0" type="curve" smooth="yes"/>
      <point x="445.0" y="411.0"/>
      <point x="418.0" y="440.0"/>
      <point x="378.0" y="440.0" type="curve" smooth="yes"/>
      <point x="324.0" y="440.0"/>
      <point x="276.0" y="396.0"/>
    </contour>
    <contour>
      <point x="180.0" y="312.0" type="curve" smooth="yes"/>
      <point x="180.0" y="461.0"/>
      <point x="286.0" y="530.0"/>
      <point x="371.0" y="530.0" type="curve" smooth="yes"/>
      <point x="456.0" y="530.0"/>
      <point x="501.0" y="449.0"/>
      <point x="501.0" y="370.0" type="curve" smooth="yes"/>
      <point x="501.0" y="231.0"/>
      <point x="423.0" y="160.0"/>
      <point x="328.0" y="160.0" type="curve" smooth="yes"/>
      <point x="255.0" y="160.0"/>
      <point x="180.0" y="213.0"/>
    </contour>
    <contour>
      <point x="5.0" y="320.0" type="curve" smooth="yes"/>
      <point x="5.0" y="539.0"/>
      <point x="181.0" y="710.0"/>
      <point x="415.0" y="710.0" type="curve" smooth="yes"/>
      <point x="649.0" y="710.0"/>
      <point x="765.0" y="549.0"/>
      <point x="765.0" y="390.0" type="curve" smooth="yes"/>
      <point x="765.0" y="214.0"/>
      <point x="631.0" y="155.0"/>
      <point x="556.0" y="155.0" type="curve" smooth="yes"/>
      <point x="495.0" y="155.0"/>
      <point x="456.0" y="204.0"/>
      <point x="456.0" y="270.0" type="curve"/>
      <point x="439.0" y="270.0" type="line"/>
      <point x="475.0" y="520.0" type="line"/>
      <point x="565.0" y="520.0" type="line"/>
      <point x="534.0" y="309.0" type="line" smooth="yes"/>
      <point x="533.0" y="302.0"/>
      <point x="532.0" y="290.0"/>
      <point x="532.0" y="282.0" type="curve" smooth="yes"/>
      <point x="532.0" y="258.0"/>
      <point x="538.0" y="236.0"/>
      <point x="571.0" y="236.0" type="curve" smooth="yes"/>
      <point x="601.0" y="236.0"/>
      <point x="675.0" y="264.0"/>
      <point x="675.0" y="390.0" type="curve" smooth="yes"/>
      <point x="675.0" y="523.0"/>
      <point x="593.0" y="625.0"/>
      <point x="415.0" y="625.0" type="curve" smooth="yes"/>
      <point x="227.0" y="625.0"/>
      <point x="95.0" y="498.0"/>
      <point x="95.0" y="320.0" type="curve" smooth="yes"/>
      <point x="95.0" y="167.0"/>
      <point x="187.0" y="75.0"/>
      <point x="365.0" y="75.0" type="curve" smooth="yes"/>
      <point x="435.0" y="75.0"/>
      <point x="501.0" y="86.0"/>
      <point x="556.0" y="117.0" type="curve"/>
      <point x="592.0" y="45.0" type="line"/>
      <point x="545.0" y="15.0"/>
      <point x="469.0" y="-10.0"/>
      <point x="365.0" y="-10.0" type="curve" smooth="yes"/>
      <point x="131.0" y="-10.0"/>
      <point x="5.0" y="121.0"/>
    </contour>
  </outline>
</glyph>
<glyph name="A" format="2">
  <advance width="784"/>
  <unicode hex="0041"/>
  <outline>
    <contour>
      <point x="179.0" y="200.0" type="line"/>
      <point x="209.0" y="290.0" type="line"/>
      <point x="579.0" y="290.0" type="line"/>
      <point x="609.0" y="200.0" type="line"/>
    </contour>
    <contour>
      <point x="392.0" y="581.0" type="line"/>
      <point x="132.0" y="0.0" type="line"/>
      <point x="10.0" y="0.0" type="line"/>
      <point x="340.0" y="700.0" type="line"/>
      <point x="444.0" y="700.0" type="line"/>
      <point x="774.0" y="0.0" type="line"/>
      <point x="652.0" y="0.0" type="line"/>
    </contour>
  </outline>
</glyph>
<glyph name="B" format="2">
  <advance width="803"/>
  <unicode hex="0042"/>
  <outline>
    <contour>
      <point x="156.0" y="341.0" type="line"/>
      <point x="156.0" y="405.0" type="line"/>
      <point x="475.0" y="405.0" type="line" smooth="yes"/>
      <point x="565.0" y="405.0"/>
      <point x="625.0" y="429.0"/>
      <point x="625.0" y="505.0" type="curve" smooth="yes"/>
      <point x="625.0" y="584.0"/>
      <point x="565.0" y="600.0"/>
      <point x="485.0" y="600.0" type="curve" smooth="yes"/>
      <point x="189.0" y="600.0" type="line"/>
      <point x="189.0" y="100.0" type="line"/>
      <point x="500.0" y="100.0" type="line" smooth="yes"/>
      <point x="590.0" y="100.0"/>
      <point x="643.0" y="119.0"/>
      <point x="643.0" y="215.0" type="curve" smooth="yes"/>
      <point x="643.0" y="281.0"/>
      <point x="590.0" y="315.0"/>
      <point x="500.0" y="315.0" type="curve" smooth="yes"/>
      <point x="156.0" y="315.0" type="line"/>
      <point x="156.0" y="376.0" type="line"/>
      <point x="525.0" y="376.0" type="line" smooth="yes"/>
      <point x="670.0" y="376.0"/>
      <point x="753.0" y="309.0"/>
      <point x="753.0" y="190.0" type="curve" smooth="yes"/>
      <point x="753.0" y="71.0"/>
      <point x="670.0" y="0.0"/>
      <point x="525.0" y="0.0" type="curve" smooth="yes"/>
      <point x="85.0" y="0.0" type="line"/>
      <point x="85.0" y="700.0" type="line"/>
      <point x="505.0" y="700.0" type="line" smooth="yes"/>
      <point x="650.0" y="700.0"/>
      <point x="735.0" y="629.0"/>
      <point x="735.0" y="520.0" type="curve" smooth="yes"/>
      <point x="735.0" y="374.0"/>
      <point x="600.0" y="341.0"/>
      <point x="495.0" y="341.0" type="curve" smooth="yes"/>
    </contour>
  </outline>
</glyph>
<glyph name="C" format="2">
  <advance width="875"/>
  <unicode hex="0043"/>
  <outline>
    <contour>
      <point x="165.0" y="350.0" type="curve" smooth="yes"/>
      <point x="165.0" y="202.0"/>
      <point x="277.0" y="90.0"/>
      <point x="475.0" y="90.0" type="curve" smooth="yes"/>
      <point x="594.0" y="90.0"/>
      <point x="699.0" y="150.0"/>
      <point x="758.0" y="202.0" type="curve"/>
      <point x="820.0" y="115.0" type="line"/>
      <point x="751.0" y="63.0"/>
      <point x="637.0" y="-10.0"/>
      <point x="475.0" y="-10.0" type="curve" smooth="yes"/>
      <point x="212.0" y="-10.0"/>
      <point x="50.0" y="136.0"/>
      <point x="50.0" y="350.0" type="curve" smooth="yes"/>
      <point x="50.0" y="564.0"/>
      <point x="212.0" y="710.0"/>
      <point x="475.0" y="710.0" type="curve" smooth="yes"/>
      <point x="637.0" y="710.0"/>
      <point x="741.0" y="647.0"/>
      <point x="800.0" y="605.0" type="curve"/>
      <point x="739.0" y="516.0" type="line"/>
      <point x="690.0" y="558.0"/>
      <point x="594.0" y="610.0"/>
      <point x="475.0" y="610.0" type="curve" smooth="yes"/>
      <point x="277.0" y="610.0"/>
      <point x="165.0" y="498.0"/>
    </contour>
  </outline>
</glyph>
<glyph name="D" format="2">
  <advance width="852"/>
  <unicode hex="0044"/>
  <outline>
    <contour>
      <point x="85.0" y="700.0" type="line"/>
      <point x="195.0" y="700.0" type="line"/>
      <point x="195.0" y="0.0" type="line"/>
      <point x="85.0" y="0.0" type="line"/>
    </contour>
    <contour>
      <point x="447.0" y="0.0" type="curve" smooth="yes"/>
      <point x="132.0" y="0.0" type="line"/>
      <point x="132.0" y="100.0" type="line"/>
      <point x="437.0" y="100.0" type="line" smooth="yes"/>
      <point x="595.0" y="100.0"/>
      <point x="677.0" y="187.0"/>
      <point x="677.0" y="350.0" type="curve" smooth="yes"/>
      <point x="677.0" y="513.0"/>
      <point x="595.0" y="600.0"/>
      <point x="437.0" y="600.0" type="curve" smooth="yes"/>
      <point x="132.0" y="600.0" type="line"/>
      <point x="132.0" y="700.0" type="line"/>
      <point x="447.0" y="700.0" type="line" smooth="yes"/>
      <point x="651.0" y="700.0"/>
      <point x="797.0" y="569.0"/>
      <point x="797.0" y="350.0" type="curve" smooth="yes"/>
      <point x="797.0" y="131.0"/>
      <point x="651.0" y="0.0"/>
    </contour>
  </outline>
</glyph>
<glyph name="E" format="2">
  <advance width="746"/>
  <unicode hex="0045"/>
  <outline>
    <contour>
      <point x="157.0" y="0.0" type="line"/>
      <point x="157.0" y="100.0" type="line"/>
      <point x="701.0" y="100.0" type="line"/>
      <point x="701.0" y="0.0" type="line"/>
    </contour>
    <contour>
      <point x="157.0" y="600.0" type="line"/>
      <point x="157.0" y="700.0" type="line"/>
      <point x="701.0" y="700.0" type="line"/>
      <point x="701.0" y="600.0" type="line"/>
    </contour>
    <contour>
      <point x="157.0" y="310.0" type="line"/>
      <point x="157.0" y="405.0" type="line"/>
      <point x="531.0" y="405.0" type="line"/>
      <point x="531.0" y="310.0" type="line"/>
    </contour>
    <contour>
      <point x="85.0" y="700.0" type="line"/>
      <point x="195.0" y="700.0" type="line"/>
      <point x="195.0" y="0.0" type="line"/>
      <point x="85.0" y="0.0" type="line"/>
    </contour>
  </outline>
</glyph>
<glyph name="F" format="2">
  <advance width="731"/>
  <unicode hex="0046"/>
  <outline>
    <contour>
      <point x="157.0" y="600.0" type="line"/>
      <point x="157.0" y="700.0" type="line"/>
      <point x="701.0" y="700.0" type="line"/>
      <point x="701.0" y="600.0" type="line"/>
    </contour>
    <contour>
      <point x="157.0" y="310.0" type="line"/>
      <point x="157.0" y="405.0" type="line"/>
      <point x="541.0" y="405.0" type="line"/>
      <point x="541.0" y="310.0" type="line"/>
    </contour>
    <contour>
      <point x="85.0" y="700.0" type="line"/>
      <point x="195.0" y="700.0" type="line"/>
      <point x="195.0" y="0.0" type="line"/>
      <point x="85.0" y="0.0" type="line"/>
    </contour>
  </outline>
</glyph>
<glyph name="G" format="2">
  <advance width="875"/>
  <unicode hex="0047"/>
  <outline>
    <contour>
      <point x="805.0" y="360.0" type="line"/>
      <point x="795.0" y="265.0" type="line"/>
      <point x="472.0" y="265.0" type="line"/>
      <point x="472.0" y="360.0" type="line"/>
    </contour>
    <contour>
      <point x="690.0" y="350.0" type="line"/>
      <point x="805.0" y="360.0" type="line"/>
      <point x="805.0" y="85.0" type="line"/>
      <point x="690.0" y="85.0" type="line"/>
    </contour>
    <contour>
      <point x="165.0" y="350.0" type="curve" smooth="yes"/>
      <point x="165.0" y="192.0"/>
      <point x="279.0" y="90.0"/>
      <point x="475.0" y="90.0" type="curve" smooth="yes"/>
      <point x="594.0" y="90.0"/>
      <point x="686.0" y="130.0"/>
      <point x="745.0" y="172.0" type="curve"/>
      <point x="805.0" y="85.0" type="line"/>
      <point x="736.0" y="43.0"/>
      <point x="647.0" y="-10.0"/>
      <point x="475.0" y="-10.0" type="curve" smooth="yes"/>
      <point x="231.0" y="-10.0"/>
      <point x="50.0" y="126.0"/>
      <point x="50.0" y="350.0" type="curve" smooth="yes"/>
      <point x="50.0" y="574.0"/>
      <point x="231.0" y="710.0"/>
      <point x="475.0" y="710.0" type="curve" smooth="yes"/>
      <point x="647.0" y="710.0"/>
      <point x="741.0" y="647.0"/>
      <point x="800.0" y="605.0" type="curve"/>
      <point x="738.0" y="516.0" type="line"/>
      <point x="689.0" y="558.0"/>
      <point x="594.0" y="610.0"/>
      <point x="475.0" y="610.0" type="curve" smooth="yes"/>
      <point x="279.0" y="610.0"/>
      <point x="165.0" y="508.0"/>
    </contour>
  </outline>
</glyph>
<glyph name="H" format="2">
  <advance width="835"/>
  <unicode hex="0048"/>
  <outline>
    <contour>
      <point x="635.0" y="700.0" type="line"/>
      <point x="750.0" y="700.0" type="line"/>
      <point x="750.0" y="0.0" type="line"/>
      <point x="635.0" y="0.0" type="line"/>
    </contour>
    <contour>
      <point x="147.0" y="310.0" type="line"/>
      <point x="147.0" y="405.0" type="line"/>
      <point x="720.0" y="405.0" type="line"/>
      <point x="720.0" y="310.0" type="line"/>
    </contour>
    <contour>
      <point x="85.0" y="700.0" type="line"/>
      <point x="200.0" y="700.0" type="line"/>
      <point x="200.0" y="0.0" type="line"/>
      <point x="85.0" y="0.0" type="line"/>
    </contour>
  </outline>
</glyph>
<glyph name="J" format="2">
  <advance width="622"/>
  <unicode hex="004A"/>
  <outline>
    <contour>
      <point x="80.0" y="161.0" type="line"/>
      <point x="114.0" y="130.0"/>
      <point x="185.0" y="80.0"/>
      <point x="281.0" y="80.0" type="curve" smooth="yes"/>
      <point x="371.0" y="80.0"/>
      <point x="427.0" y="106.0"/>
      <point x="427.0" y="205.0" type="curve" smooth="yes"/>
      <point x="427.0" y="700.0" type="line"/>
      <point x="542.0" y="700.0" type="line"/>
      <point x="542.0" y="180.0" type="line" smooth="yes"/>
      <point x="542.0" y="51.0"/>
      <point x="428.0" y="-20.0"/>
      <point x="274.0" y="-20.0" type="curve" smooth="yes"/>
      <point x="171.0" y="-20.0"/>
      <point x="61.0" y="30.0"/>
      <point x="16.0" y="70.0" type="curve"/>
    </contour>
  </outline>
</glyph>
<glyph name="K" format="2">
  <advance width="765"/>
  <unicode hex="004B"/>
  <outline>
    <contour>
      <point x="310.0" y="380.0" type="line"/>
      <point x="400.0" y="428.0" type="line"/>
      <point x="745.0" y="0.0" type="line"/>
      <point x="606.0" y="0.0" type="line"/>
    </contour>
    <contour>
      <point x="612.0" y="700.0" type="line"/>
      <point x="750.0" y="700.0" type="line"/>
      <point x="180.0" y="230.0" type="line"/>
      <point x="110.0" y="299.0" type="line"/>
    </contour>
    <contour>
      <point x="85.0" y="700.0" type="line"/>
      <point x="195.0" y="700.0" type="line"/>
      <point x="195.0" y="0.0" type="line"/>
      <point x="85.0" y="0.0" type="line"/>
    </contour>
  </outline>
</glyph>
<glyph name="L" format="2">
  <advance width="720"/>
  <unicode hex="004C"/>
  <outline>
    <contour>
      <point x="152.0" y="0.0" type="line"/>
      <point x="152.0" y="100.0" type="line"/>
      <point x="705.0" y="100.0" type="line"/>
      <point x="705.0" y="0.0" type="line"/>
    </contour>
    <contour>
      <point x="85.0" y="700.0" type="line"/>
      <point x="200.0" y="700.0" type="line"/>
      <point x="200.0" y="0.0" type="line"/>
      <point x="85.0" y="0.0" type="line"/>
    </contour>
  </outline>
</glyph>
<glyph name="M" format="2">
  <advance width="930"/>
  <unicode hex="004D"/>
  <outline>
    <contour>
      <point x="195.0" y="540.0" type="line"/>
      <point x="195.0" y="700.0" type="line"/>
      <point x="230.0" y="700.0" type="line"/>
      <point x="465.0" y="203.0" type="line"/>
      <point x="700.0" y="700.0" type="line"/>
      <point x="735.0" y="700.0" type="line"/>
      <point x="735.0" y="540.0" type="line"/>
      <point x="465.0" y="-10.0" type="line"/>
    </contour>
    <contour>
      <point x="735.0" y="700.0" type="line"/>
      <point x="845.0" y="700.0" type="line"/>
      <point x="845.0" y="0.0" type="line"/>
      <point x="735.0" y="0.0" type="line"/>
    </contour>
    <contour>
      <point x="85.0" y="700.0" type="line"/>
      <point x="195.0" y="700.0" type="line"/>
      <point x="195.0" y="0.0" type="line"/>
      <point x="85.0" y="0.0" type="line"/>
    </contour>
  </outline>
</glyph>
<glyph name="N" format="2">
  <advance width="860"/>
  <unicode hex="004E"/>
  <outline>
    <contour>
      <point x="193.0" y="570.0" type="line"/>
      <point x="195.0" y="700.0" type="line"/>
      <point x="225.0" y="700.0" type="line"/>
      <point x="665.0" y="163.0" type="line"/>
      <point x="655.0" y="0.0" type="line"/>
    </contour>
    <contour>
      <point x="665.0" y="700.0" type="line"/>
      <point x="775.0" y="700.0" type="line"/>
      <point x="775.0" y="0.0" type="line"/>
      <point x="655.0" y="0.0" type="line"/>
      <point x="665.0" y="163.0" type="line"/>
    </contour>
    <contour>
      <point x="85.0" y="700.0" type="line"/>
      <point x="195.0" y="700.0" type="line"/>
      <point x="195.0" y="0.0" type="line"/>
      <point x="85.0" y="0.0" type="line"/>
    </contour>
  </outline>
</glyph>
<glyph name="O" format="2">
  <advance width="910"/>
  <unicode hex="004F"/>
  <outline>
    <contour>
      <point x="165.0" y="350.0" type="curve" smooth="yes"/>
      <point x="165.0" y="186.0"/>
      <point x="302.0" y="90.0"/>
      <point x="455.0" y="90.0" type="curve" smooth="yes"/>
      <point x="608.0" y="90.0"/>
      <point x="745.0" y="186.0"/>
      <point x="745.0" y="350.0" type="curve" smooth="yes"/>
      <point x="745.0" y="514.0"/>
      <point x="608.0" y="610.0"/>
      <point x="455.0" y="610.0" type="curve" smooth="yes"/>
      <point x="302.0" y="610.0"/>
      <point x="165.0" y="514.0"/>
    </contour>
    <contour>
      <point x="50.0" y="350.0" type="curve" smooth="yes"/>
      <point x="50.0" y="584.0"/>
      <point x="236.0" y="710.0"/>
      <point x="455.0" y="710.0" type="curve" smooth="yes"/>
      <point x="674.0" y="710.0"/>
      <point x="860.0" y="584.0"/>
      <point x="860.0" y="350.0" type="curve" smooth="yes"/>
      <point x="860.0" y="116.0"/>
      <point x="674.0" y="-10.0"/>
      <point x="455.0" y="-10.0" type="curve" smooth="yes"/>
      <point x="236.0" y="-10.0"/>
      <point x="50.0" y="116.0"/>
    </contour>
  </outline>
</glyph>
<glyph name="P" format="2">
  <advance width="753"/>
  <unicode hex="0050"/>
  <outline>
    <contour>
      <point x="85.0" y="700.0" type="line"/>
      <point x="195.0" y="700.0" type="line"/>
      <point x="195.0" y="0.0" type="line"/>
      <point x="85.0" y="0.0" type="line"/>
    </contour>
    <contour>
      <point x="132.0" y="600.0" type="line"/>
      <point x="132.0" y="700.0" type="line"/>
      <point x="480.0" y="700.0" type="line" smooth="yes"/>
      <point x="605.0" y="700.0"/>
      <point x="718.0" y="654.0"/>
      <point x="718.0" y="500.0" type="curve" smooth="yes"/>
      <point x="718.0" y="347.0"/>
      <point x="605.0" y="300.0"/>
      <point x="480.0" y="300.0" type="curve" smooth="yes"/>
      <point x="132.0" y="300.0" type="line"/>
      <point x="132.0" y="400.0" type="line"/>
      <point x="470.0" y="400.0" type="line" smooth="yes"/>
      <point x="559.0" y="400.0"/>
      <point x="603.0" y="434.0"/>
      <point x="603.0" y="500.0" type="curve" smooth="yes"/>
      <point x="603.0" y="566.0"/>
      <point x="559.0" y="600.0"/>
      <point x="470.0" y="600.0" type="curve" smooth="yes"/>
    </contour>
  </outline>
</glyph>
<glyph name="Q" format="2">
  <advance width="870"/>
  <unicode hex="0051"/>
  <outline>
    <contour>
      <point x="50.0" y="350.0" type="curve" smooth="yes"/>
      <point x="50.0" y="574.0"/>
      <point x="216.0" y="710.0"/>
      <point x="435.0" y="710.0" type="curve" smooth="yes"/>
      <point x="654.0" y="710.0"/>
      <point x="820.0" y="574.0"/>
      <point x="820.0" y="350.0" type="curve" smooth="yes"/>
      <point x="820.0" y="126.0"/>
      <point x="654.0" y="-10.0"/>
      <point x="435.0" y="-10.0" type="curve" smooth="yes"/>
      <point x="216.0" y="-10.0"/>
      <point x="50.0" y="126.0"/>
    </contour>
    <contour>
      <point x="165.0" y="350.0" type="curve" smooth="yes"/>
      <point x="165.0" y="186.0"/>
      <point x="272.0" y="85.0"/>
      <point x="435.0" y="85.0" type="curve" smooth="yes"/>
      <point x="598.0" y="85.0"/>
      <point x="705.0" y="186.0"/>
      <point x="705.0" y="350.0" type="curve" smooth="yes"/>
      <point x="705.0" y="514.0"/>
      <point x="598.0" y="615.0"/>
      <point x="435.0" y="615.0" type="curve" smooth="yes"/>
      <point x="272.0" y="615.0"/>
      <point x="165.0" y="514.0"/>
    </contour>
    <contour>
      <point x="426.0" y="192.0" type="curve" smooth="yes"/>
      <point x="586.0" y="192.0"/>
      <point x="593.0" y="0.0"/>
      <point x="763.0" y="-10.0" type="curve"/>
      <point x="696.0" y="-91.0" type="line"/>
      <point x="543.0" y="-32.0"/>
      <point x="480.0" y="135.0"/>
      <point x="380.0" y="135.0" type="curve" smooth="yes"/>
      <point x="351.0" y="135.0"/>
      <point x="326.0" y="122.0"/>
      <point x="326.0" y="87.0" type="curve"/>
      <point x="311.0" y="87.0" type="line"/>
      <point x="311.0" y="137.0"/>
      <point x="351.0" y="192.0"/>
    </contour>
  </outline>
</glyph>
<glyph name="R" format="2">
  <advance width="785"/>
  <unicode hex="0052"/>
  <outline>
    <contour>
      <point x="85.0" y="700.0" type="line"/>
      <point x="195.0" y="700.0" type="line"/>
      <point x="195.0" y="0.0" type="line"/>
      <point x="85.0" y="0.0" type="line"/>
    </contour>
    <contour>
      <point x="132.0" y="600.0" type="line"/>
      <point x="132.0" y="700.0" type="line"/>
      <point x="505.0" y="700.0" type="line" smooth="yes"/>
      <point x="630.0" y="700.0"/>
      <point x="743.0" y="659.0"/>
      <point x="743.0" y="505.0" type="curve" smooth="yes"/>
      <point x="743.0" y="352.0"/>
      <point x="630.0" y="315.0"/>
      <point x="505.0" y="315.0" type="curve" smooth="yes"/>
      <point x="132.0" y="315.0" type="line"/>
      <point x="132.0" y="410.0" type="line"/>
      <point x="495.0" y="410.0" type="line" smooth="yes"/>
      <point x="584.0" y="410.0"/>
      <point x="628.0" y="439.0"/>
      <point x="628.0" y="505.0" type="curve" smooth="yes"/>
      <point x="628.0" y="571.0"/>
      <point x="584.0" y="600.0"/>
      <point x="495.0" y="600.0" type="curve" smooth="yes"/>
    </contour>
    <contour>
      <point x="375.0" y="360.0" type="line"/>
      <point x="495.0" y="360.0" type="line"/>
      <point x="760.0" y="0.0" type="line"/>
      <point x="625.0" y="0.0" type="line"/>
    </contour>
  </outline>
</glyph>
<glyph name="S" format="2">
  <advance width="764"/>
  <unicode hex="0053"/>
  <outline>
    <contour>
      <point x="108.0" y="189.0" type="line"/>
      <point x="174.0" y="145.0"/>
      <point x="261.0" y="88.0"/>
      <point x="405.0" y="88.0" type="curve" smooth="yes"/>
      <point x="550.0" y="88.0"/>
      <point x="618.0" y="131.0"/>
      <point x="618.0" y="196.0" type="curve" smooth="yes"/>
      <point x="618.0" y="261.0"/>
      <point x="558.91796875" y="293.310546875"/>
      <point x="389.0" y="305.0" type="curve" smooth="yes"/>
      <point x="175.069335938" y="319.717773438"/>
      <point x="62.0" y="382.0"/>
      <point x="62.0" y="509.0" type="curve" smooth="yes"/>
      <point x="62.0" y="643.0"/>
      <point x="201.0" y="720.0"/>
      <point x="380.0" y="720.0" type="curve" smooth="yes"/>
      <point x="543.0" y="720.0"/>
      <point x="648.0" y="669.0"/>
      <point x="713.0" y="625.0" type="curve"/>
      <point x="651.0" y="541.0" type="line"/>
      <point x="604.0" y="581.0"/>
      <point x="492.0" y="625.0"/>
      <point x="380.0" y="625.0" type="curve" smooth="yes"/>
      <point x="254.0" y="625.0"/>
      <point x="172.0" y="588.0"/>
      <point x="172.0" y="516.0" type="curve" smooth="yes"/>
      <point x="172.0" y="440.0"/>
      <point x="258.201171875" y="417.491210938"/>
      <point x="418.0" y="405.0" type="curve" smooth="yes"/>
      <point x="621.58984375" y="389.0859375"/>
      <point x="734.0" y="322.0"/>
      <point x="734.0" y="200.0" type="curve" smooth="yes"/>
      <point x="734.0" y="72.0"/>
      <point x="600.5859375" y="-12.8974609375"/>
      <point x="400.0" y="-10.0" type="curve" smooth="yes"/>
      <point x="225.658840507" y="-7.48164449749"/>
      <point x="105.000002461" y="57.1401024066"/>
      <point x="50.0" y="102.0" type="curve"/>
    </contour>
  </outline>
</glyph>
<glyph name="T" format="2">
  <advance width="685"/>
  <unicode hex="0054"/>
  <outline>
    <contour>
      <point x="10.0" y="605.0" type="line"/>
      <point x="10.0" y="700.0" type="line"/>
      <point x="675.0" y="700.0" type="line"/>
      <point x="675.0" y="605.0" type="line"/>
    </contour>
    <contour>
      <point x="285.0" y="700.0" type="line"/>
      <point x="400.0" y="700.0" type="line"/>
      <point x="400.0" y="0.0" type="line"/>
      <point x="285.0" y="0.0" type="line"/>
    </contour>
  </outline>
</glyph>
<glyph name="U" format="2">
  <advance width="810"/>
  <unicode hex="0055"/>
  <outline>
    <contour>
      <point x="75.0" y="700.0" type="line"/>
      <point x="190.0" y="700.0" type="line"/>
      <point x="190.0" y="242.0" type="line" smooth="yes"/>
      <point x="190.0" y="136.0"/>
      <point x="275.0" y="90.0"/>
      <point x="405.0" y="90.0" type="curve" smooth="yes"/>
      <point x="545.0" y="90.0"/>
      <point x="620.0" y="136.0"/>
      <point x="620.0" y="242.0" type="curve" smooth="yes"/>
      <point x="620.0" y="700.0" type="line"/>
      <point x="735.0" y="700.0" type="line"/>
      <point x="735.0" y="230.0" type="line" smooth="yes"/>
      <point x="735.0" y="61.0"/>
      <point x="580.0" y="-10.0"/>
      <point x="405.0" y="-10.0" type="curve" smooth="yes"/>
      <point x="230.0" y="-10.0"/>
      <point x="75.0" y="61.0"/>
      <point x="75.0" y="230.0" type="curve" smooth="yes"/>
    </contour>
  </outline>
</glyph>
<glyph name="V" format="2">
  <advance width="774"/>
  <unicode hex="0056"/>
  <outline>
    <contour>
      <point x="387.0" y="124.0" type="line"/>
      <point x="632.0" y="700.0" type="line"/>
      <point x="759.0" y="700.0" type="line"/>
      <point x="439.0" y="0.0" type="line"/>
      <point x="335.0" y="0.0" type="line"/>
      <point x="15.0" y="700.0" type="line"/>
      <point x="142.0" y="700.0" type="line"/>
    </contour>
  </outline>
</glyph>
<glyph name="W" format="2">
  <advance width="1140"/>
  <unicode hex="0057"/>
  <outline>
    <contour>
      <point x="820.0" y="131.0" type="line"/>
      <point x="1010.0" y="700.0" type="line"/>
      <point x="1125.0" y="700.0" type="line"/>
      <point x="875.0" y="0.0" type="line"/>
      <point x="765.0" y="0.0" type="line"/>
      <point x="525.0" y="650.0" type="line"/>
      <point x="515.0" y="700.0" type="line"/>
      <point x="625.0" y="700.0" type="line"/>
    </contour>
    <contour>
      <point x="320.0" y="131.0" type="line"/>
      <point x="515.0" y="700.0" type="line"/>
      <point x="625.0" y="700.0" type="line"/>
      <point x="615.0" y="650.0" type="line"/>
      <point x="375.0" y="0.0" type="line"/>
      <point x="265.0" y="0.0" type="line"/>
      <point x="15.0" y="700.0" type="line"/>
      <point x="130.0" y="700.0" type="line"/>
    </contour>
  </outline>
</glyph>
<glyph name="X" format="2">
  <advance width="685"/>
  <unicode hex="0058"/>
  <outline>
    <contour>
      <point x="535.0" y="700.0" type="line"/>
      <point x="675.0" y="700.0" type="line"/>
      <point x="413.0" y="362.0" type="line"/>
      <point x="680.0" y="0.0" type="line"/>
      <point x="550.0" y="0.0" type="line"/>
      <point x="345.0" y="290.0" type="line"/>
      <point x="135.0" y="0.0" type="line"/>
      <point x="5.0" y="0.0" type="line"/>
      <point x="278.0" y="362.0" type="line"/>
      <point x="20.0" y="700.0" type="line"/>
      <point x="160.0" y="700.0" type="line"/>
      <point x="346.0" y="434.0" type="line"/>
    </contour>
  </outline>
</glyph>
<glyph name="Z" format="2">
  <advance width="744"/>
  <unicode hex="005A"/>
  <outline>
    <contour>
      <point x="40.0" y="600.0" type="line"/>
      <point x="40.0" y="700.0" type="line"/>
      <point x="699.0" y="700.0" type="line"/>
      <point x="699.0" y="685.0" type="line"/>
      <point x="230.0" y="100.0" type="line"/>
      <point x="685.0" y="100.0" type="line"/>
      <point x="685.0" y="0.0" type="line"/>
      <point x="30.0" y="0.0" type="line"/>
      <point x="30.0" y="15.0" type="line"/>
      <point x="502.0" y="600.0" type="line"/>
    </contour>
  </outline>
</glyph>
<glyph name="bracketleft" format="2">
  <advance width="331"/>
  <unicode hex="005B"/>
  <outline>
    <contour>
      <point x="210.0" y="680.0" type="line"/>
      <point x="210.0" y="-120.0" type="line"/>
      <point x="311.0" y="-120.0" type="line"/>
      <point x="311.0" y="-220.0" type="line"/>
      <point x="100.0" y="-220.0" type="line"/>
      <point x="100.0" y="780.0" type="line"/>
      <point x="311.0" y="780.0" type="line"/>
      <point x="311.0" y="680.0" type="line"/>
    </contour>
  </outline>
</glyph>
<glyph name="asciicircum" format="2">
  <advance width="570"/>
  <unicode hex="005E"/>
  <outline>
    <contour>
      <point x="285.0" y="621.0" type="line"/>
      <point x="165.0" y="460.0" type="line"/>
      <point x="45.0" y="460.0" type="line"/>
      <point x="245.0" y="710.0" type="line"/>
      <point x="325.0" y="710.0" type="line"/>
      <point x="525.0" y="460.0" type="line"/>
      <point x="405.0" y="460.0" type="line"/>
    </contour>
  </outline>
</glyph>
<glyph name="grave" format="2">
  <advance width="375"/>
  <unicode hex="0060"/>
  <outline>
    <contour>
      <point x="71.0" y="656.0" type="line"/>
      <point x="160.0" y="715.0" type="line"/>
      <point x="310.0" y="555.0" type="line"/>
      <point x="251.0" y="506.0" type="line"/>
    </contour>
  </outline>
</glyph>
<glyph name="braceleft" format="2">
  <advance width="341"/>
  <unicode hex="007B"/>
  <outline>
    <contour>
      <point x="208.0" y="640.0" type="curve" smooth="yes"/>
      <point x="208.0" y="490.0" type="line" smooth="yes"/>
      <point x="208.0" y="371.0"/>
      <point x="174.0" y="270.0"/>
      <point x="65.0" y="270.0" type="curve"/>
      <point x="65.0" y="310.0" type="line"/>
      <point x="174.0" y="310.0"/>
      <point x="208.0" y="209.0"/>
      <point x="208.0" y="90.0" type="curve" smooth="yes"/>
      <point x="208.0" y="-60.0" type="line" smooth="yes"/>
      <point x="208.0" y="-86.0"/>
      <point x="226.0" y="-110.0"/>
      <point x="256.0" y="-110.0" type="curve" smooth="yes"/>
      <point x="291.0" y="-110.0" type="line"/>
      <point x="291.0" y="-200.0" type="line"/>
      <point x="231.0" y="-200.0" type="line" smooth="yes"/>
      <point x="187.0" y="-200.0"/>
      <point x="98.0" y="-159.0"/>
      <point x="98.0" y="-60.0" type="curve" smooth="yes"/>
      <point x="98.0" y="150.0" type="line" smooth="yes"/>
      <point x="98.0" y="216.0"/>
      <point x="80.0" y="235.0"/>
      <point x="50.0" y="245.0" type="curve"/>
      <point x="50.0" y="335.0" type="line"/>
      <point x="80.0" y="345.0"/>
      <point x="98.0" y="364.0"/>
      <point x="98.0" y="430.0" type="curve" smooth="yes"/>
      <point x="98.0" y="640.0" type="line" smooth="yes"/>
      <point x="98.0" y="739.0"/>
      <point x="187.0" y="780.0"/>
      <point x="231.0" y="780.0" type="curve" smooth="yes"/>
      <point x="291.0" y="780.0" type="line"/>
      <point x="291.0" y="690.0" type="line"/>
      <point x="256.0" y="690.0" type="line" smooth="yes"/>
      <point x="226.0" y="690.0"/>
      <point x="208.0" y="666.0"/>
    </contour>
  </outline>
</glyph>
<glyph name="bar" format="2">
  <advance width="304"/>
  <unicode hex="007C"/>
  <outline>
    <contour>
      <point x="100.0" y="780.0" type="line"/>
      <point x="204.0" y="780.0" type="line"/>
      <point x="204.0" y="-220.0" type="line"/>
      <point x="100.0" y="-220.0" type="line"/>
    </contour>
  </outline>
</glyph>
<glyph name="braceright" format="2">
  <advance width="341"/>
  <unicode hex="007D"/>
  <outline>
    <contour>
      <point x="133.0" y="-60.0" type="curve" smooth="yes"/>
      <point x="133.0" y="90.0" type="line" smooth="yes"/>
      <point x="133.0" y="209.0"/>
      <point x="167.0" y="310.0"/>
      <point x="276.0" y="310.0" type="curve"/>
      <point x="276.0" y="270.0" type="line"/>
      <point x="167.0" y="270.0"/>
      <point x="133.0" y="371.0"/>
      <point x="133.0" y="490.0" type="curve" smooth="yes"/>
      <point x="133.0" y="640.0" type="line" smooth="yes"/>
      <point x="133.0" y="666.0"/>
      <point x="115.0" y="690.0"/>
      <point x="85.0" y="690.0" type="curve" smooth="yes"/>
      <point x="50.0" y="690.0" type="line"/>
      <point x="50.0" y="780.0" type="line"/>
      <point x="110.0" y="780.0" type="line" smooth="yes"/>
      <point x="154.0" y="780.0"/>
      <point x="243.0" y="739.0"/>
      <point x="243.0" y="640.0" type="curve" smooth="yes"/>
      <point x="243.0" y="430.0" type="line" smooth="yes"/>
      <point x="243.0" y="364.0"/>
      <point x="261.0" y="345.0"/>
      <point x="291.0" y="335.0" type="curve"/>
      <point x="291.0" y="245.0" type="line"/>
      <point x="261.0" y="235.0"/>
      <point x="243.0" y="216.0"/>
      <point x="243.0" y="150.0" type="curve" smooth="yes"/>
      <point x="243.0" y="-60.0" type="line" smooth="yes"/>
      <point x="243.0" y="-159.0"/>
      <point x="154.0" y="-200.0"/>
      <point x="110.0" y="-200.0" type="curve" smooth="yes"/>
      <point x="50.0" y="-200.0" type="line"/>
      <point x="50.0" y="-110.0" type="line"/>
      <point x="85.0" y="-110.0" type="line" smooth="yes"/>
      <point x="115.0" y="-110.0"/>
      <point x="133.0" y="-86.0"/>
    </contour>
  </outline>
</glyph>
<glyph name="asciitilde" format="2">
  <advance width="575"/>
  <unicode hex="007E"/>
  <outline>
    <contour>
      <point x="157.0" y="176.0" type="curve"/>
      <point x="63.0" y="176.0" type="line"/>
      <point x="61.0" y="183.0"/>
      <point x="60.0" y="206.0"/>
      <point x="60.0" y="215.0" type="curve" smooth="yes"/>
      <point x="60.0" y="236.0"/>
      <point x="66.0" y="271.0"/>
      <point x="84.0" y="295.0" type="curve" smooth="yes"/>
      <point x="110.0" y="330.0"/>
      <point x="147.0" y="337.0"/>
      <point x="189.0" y="337.0" type="curve" smooth="yes"/>
      <point x="228.0" y="337.0"/>
      <point x="270.41015625" y="318.84765625"/>
      <point x="307.0" y="294.0" type="curve" smooth="yes"/>
      <point x="335.127960096" y="274.898691772"/>
      <point x="362.0" y="257.0"/>
      <point x="390.0" y="257.0" type="curve" smooth="yes"/>
      <point x="414.0" y="257.0"/>
      <point x="422.0" y="264.0"/>
      <point x="422.0" y="291.0" type="curve" smooth="yes"/>
      <point x="422.0" y="299.0"/>
      <point x="419.0" y="313.0"/>
      <point x="415.0" y="323.0" type="curve"/>
      <point x="511.0" y="323.0" type="line"/>
      <point x="513.0" y="315.0"/>
      <point x="515.0" y="290.0"/>
      <point x="515.0" y="280.0" type="curve" smooth="yes"/>
      <point x="515.0" y="260.0"/>
      <point x="510.0" y="222.0"/>
      <point x="493.0" y="199.0" type="curve" smooth="yes"/>
      <point x="467.0" y="165.0"/>
      <point x="435.0" y="162.0"/>
      <point x="399.0" y="162.0" type="curve" smooth="yes"/>
      <point x="365.0" y="162.0"/>
      <point x="322.0" y="184.0"/>
      <point x="289.0" y="205.0" type="curve" smooth="yes"/>
      <point x="257.10793798" y="225.294948558"/>
      <point x="218.0" y="243.0"/>
      <point x="193.0" y="243.0" type="curve" smooth="yes"/>
      <point x="162.0" y="243.0"/>
      <point x="148.0" y="228.0"/>
      <point x="148.0" y="203.0" type="curve" smooth="yes"/>
      <point x="148.0" y="196.0"/>
      <point x="151.0" y="184.0"/>
    </contour>
  </outline>
</glyph>
<glyph name="cent" format="2">
  <advance width="795"/>
  <unicode hex="00A2"/>
  <outline>
    <contour>
      <point x="475.0" y="740.0" type="line"/>
      <point x="515.0" y="740.0" type="line"/>
      <point x="515.0" y="-80.0" type="line"/>
      <point x="475.0" y="-80.0" type="line"/>
    </contour>
    <contour>
      <point x="335.0" y="740.0" type="line"/>
      <point x="375.0" y="740.0" type="line"/>
      <point x="375.0" y="-80.0" type="line"/>
      <point x="335.0" y="-80.0" type="line"/>
    </contour>
    <contour>
      <point x="165.0" y="350.0" type="curve" smooth="yes"/>
      <point x="165.0" y="202.0"/>
      <point x="257.0" y="90.0"/>
      <point x="435.0" y="90.0" type="curve" smooth="yes"/>
      <point x="534.0" y="90.0"/>
      <point x="619.0" y="150.0"/>
      <point x="678.0" y="202.0" type="curve"/>
      <point x="740.0" y="115.0" type="line"/>
      <point x="671.0" y="63.0"/>
      <point x="577.0" y="-10.0"/>
      <point x="435.0" y="-10.0" type="curve" smooth="yes"/>
      <point x="192.0" y="-10.0"/>
      <point x="50.0" y="136.0"/>
      <point x="50.0" y="350.0" type="curve" smooth="yes"/>
      <point x="50.0" y="564.0"/>
      <point x="192.0" y="710.0"/>
      <point x="435.0" y="710.0" type="curve" smooth="yes"/>
      <point x="577.0" y="710.0"/>
      <point x="661.0" y="647.0"/>
      <point x="720.0" y="605.0" type="curve"/>
      <point x="659.0" y="516.0" type="line"/>
      <point x="610.0" y="558.0"/>
      <point x="534.0" y="610.0"/>
      <point x="435.0" y="610.0" type="curve" smooth="yes"/>
      <point x="257.0" y="610.0"/>
      <point x="165.0" y="498.0"/>
    </contour>
  </outline>
</glyph>
<glyph name="sterling" format="2">
  <advance width="736"/>
  <unicode hex="00A3"/>
  <outline>
    <contour>
      <point x="50.0" y="399.0" type="line"/>
      <point x="50.0" y="439.0" type="line"/>
      <point x="520.0" y="439.0" type="line"/>
      <point x="520.0" y="399.0" type="line"/>
    </contour>
    <contour>
      <point x="50.0" y="279.0" type="line"/>
      <point x="50.0" y="319.0" type="line"/>
      <point x="520.0" y="319.0" type="line"/>
      <point x="520.0" y="279.0" type="line"/>
    </contour>
    <contour>
      <point x="587.0" y="544.0" type="line"/>
      <point x="553.0" y="575.0"/>
      <point x="487.0" y="620.0"/>
      <point x="371.0" y="620.0" type="curve" smooth="yes"/>
      <point x="251.0" y="620.0"/>
      <point x="195.0" y="580.0"/>
      <point x="195.0" y="505.0" type="curve" smooth="yes"/>
      <point x="195.0" y="402.0"/>
      <point x="259.0" y="391.0"/>
      <point x="259.0" y="279.0" type="curve" smooth="yes"/>
      <point x="259.0" y="203.0"/>
      <point x="207.0" y="117.0"/>
      <point x="124.0" y="50.0" type="curve"/>
      <point x="109.0" y="60.0" type="line"/>
      <point x="170.0" y="91.0"/>
      <point x="211.0" y="147.0"/>
      <point x="297.0" y="147.0" type="curve" smooth="yes"/>
      <point x="423.0" y="147.0"/>
      <point x="436.0" y="87.0"/>
      <point x="553.0" y="87.0" type="curve" smooth="yes"/>
      <point x="588.0" y="87.0"/>
      <point x="645.0" y="96.0"/>
      <point x="686.0" y="110.0" type="curve"/>
      <point x="686.0" y="0.0" type="line"/>
      <point x="645.0" y="-14.0"/>
      <point x="578.0" y="-23.0"/>
      <point x="543.0" y="-23.0" type="curve" smooth="yes"/>
      <point x="406.0" y="-23.0"/>
      <point x="373.0" y="42.0"/>
      <point x="247.0" y="42.0" type="curve" smooth="yes"/>
      <point x="201.0" y="42.0"/>
      <point x="157.0" y="23.0"/>
      <point x="109.0" y="-15.0" type="curve"/>
      <point x="40.0" y="70.0" type="line"/>
      <point x="93.0" y="127.0"/>
      <point x="152.0" y="203.0"/>
      <point x="152.0" y="259.0" type="curve" smooth="yes"/>
      <point x="152.0" y="371.0"/>
      <point x="80.0" y="395.0"/>
      <point x="80.0" y="520.0" type="curve" smooth="yes"/>
      <point x="80.0" y="650.0"/>
      <point x="194.0" y="720.0"/>
      <point x="378.0" y="720.0" type="curve" smooth="yes"/>
      <point x="511.0" y="720.0"/>
      <point x="601.0" y="670.0"/>
      <point x="646.0" y="630.0" type="curve"/>
    </contour>
  </outline>
</glyph>
<glyph name="yen" format="2">
  <advance width="731"/>
  <unicode hex="00A5"/>
  <outline>
    <contour>
      <point x="106.0" y="321.0" type="line"/>
      <point x="106.0" y="361.0" type="line"/>
      <point x="620.0" y="361.0" type="line"/>
      <point x="620.0" y="321.0" type="line"/>
    </contour>
    <contour>
      <point x="106.0" y="201.0" type="line"/>
      <point x="106.0" y="241.0" type="line"/>
      <point x="620.0" y="241.0" type="line"/>
      <point x="620.0" y="201.0" type="line"/>
    </contour>
    <contour>
      <point x="586.0" y="700.0" type="line"/>
      <point x="721.0" y="700.0" type="line"/>
      <point x="420.0" y="302.0" type="line"/>
      <point x="420.0" y="0.0" type="line"/>
      <point x="306.0" y="0.0" type="line"/>
      <point x="306.0" y="301.0" type="line"/>
      <point x="10.0" y="700.0" type="line"/>
      <point x="150.0" y="700.0" type="line"/>
      <point x="363.0" y="396.0" type="line"/>
    </contour>
  </outline>
</glyph>
<glyph name="copyright" format="2">
  <advance width="930"/>
  <unicode hex="00A9"/>
  <outline>
    <contour>
      <point x="50.0" y="375.0" type="curve" smooth="yes"/>
      <point x="50.0" y="588.0"/>
      <point x="232.0" y="760.0"/>
      <point x="465.0" y="760.0" type="curve" smooth="yes"/>
      <point x="698.0" y="760.0"/>
      <point x="880.0" y="588.0"/>
      <point x="880.0" y="375.0" type="curve" smooth="yes"/>
      <point x="880.0" y="162.0"/>
      <point x="698.0" y="-10.0"/>
      <point x="465.0" y="-10.0" type="curve" smooth="yes"/>
      <point x="232.0" y="-10.0"/>
      <point x="50.0" y="162.0"/>
    </contour>
    <contour>
      <point x="87.0" y="375.0" type="curve" smooth="yes"/>
      <point x="87.0" y="181.0"/>
      <point x="251.0" y="26.0"/>
      <point x="465.0" y="26.0" type="curve" smooth="yes"/>
      <point x="679.0" y="26.0"/>
      <point x="843.0" y="181.0"/>
      <point x="843.0" y="375.0" type="curve" smooth="yes"/>
      <point x="843.0" y="569.0"/>
      <point x="679.0" y="724.0"/>
      <point x="465.0" y="724.0" type="curve" smooth="yes"/>
      <point x="251.0" y="724.0"/>
      <point x="87.0" y="569.0"/>
    </contour>
    <component base="C" xScale="0.6" yScale="0.6" xOffset="184.0" yOffset="170.0"/>
  </outline>
</glyph>
<glyph name="guillemotleft" format="2">
  <advance width="522"/>
  <unicode hex="00AB"/>
  <outline>
    <contour>
      <point x="318.0" y="259.0" type="line"/>
      <point x="468.0" y="65.0" type="line"/>
      <point x="401.0" y="12.0" type="line"/>
      <point x="215.0" y="255.0" type="line"/>
      <point x="401.0" y="498.0" type="line"/>
      <point x="468.0" y="445.0" type="line"/>
    </contour>
    <contour>
      <point x="141.0" y="259.0" type="line"/>
      <point x="291.0" y="65.0" type="line"/>
      <point x="223.0" y="12.0" type="line"/>
      <point x="38.0" y="255.0" type="line"/>
      <point x="223.0" y="498.0" type="line"/>
      <point x="291.0" y="445.0" type="line"/>
    </contour>
  </outline>
</glyph>
<glyph name="macron" format="2">
  <advance width="369"/>
  <unicode hex="00AF"/>
  <outline>
    <contour>
      <point x="20.0" y="385.0" type="line"/>
      <point x="20.0" y="485.0" type="line"/>
      <point x="349.0" y="485.0" type="line"/>
      <point x="349.0" y="385.0" type="line"/>
    </contour>
  </outline>
</glyph>
<glyph name="degree" format="2">
  <advance width="319"/>
  <unicode hex="00B0"/>
  <outline>
    <contour>
      <point x="40.0" y="680.0" type="curve" smooth="yes"/>
      <point x="40.0" y="746.0"/>
      <point x="94.0" y="800.0"/>
      <point x="160.0" y="800.0" type="curve" smooth="yes"/>
      <point x="226.0" y="800.0"/>
      <point x="280.0" y="746.0"/>
      <point x="280.0" y="680.0" type="curve" smooth="yes"/>
      <point x="280.0" y="614.0"/>
      <point x="226.0" y="560.0"/>
      <point x="160.0" y="560.0" type="curve" smooth="yes"/>
      <point x="94.0" y="560.0"/>
      <point x="40.0" y="614.0"/>
    </contour>
    <contour>
      <point x="94.0" y="680.0" type="curve" smooth="yes"/>
      <point x="94.0" y="643.0"/>
      <point x="123.0" y="615.0"/>
      <point x="160.0" y="615.0" type="curve" smooth="yes"/>
      <point x="197.0" y="615.0"/>
      <point x="225.0" y="643.0"/>
      <point x="225.0" y="680.0" type="curve" smooth="yes"/>
      <point x="225.0" y="717.0"/>
      <point x="197.0" y="745.0"/>
      <point x="160.0" y="745.0" type="curve" smooth="yes"/>
      <point x="123.0" y="745.0"/>
      <point x="94.0" y="717.0"/>
    </contour>
  </outline>
</glyph>
<glyph name="acute" format="2">
  <advance width="375"/>
  <unicode hex="00B4"/>
  <outline>
    <contour>
      <point x="304.0" y="656.0" type="line"/>
      <point x="124.0" y="506.0" type="line"/>
      <point x="65.0" y="555.0" type="line"/>
      <point x="215.0" y="715.0" type="line"/>
    </contour>
  </outline>
</glyph>
<glyph name="guillemotright" format="2">
  <advance width="522"/>
  <unicode hex="00BB"/>
  <outline>
    <contour>
      <point x="204.0" y="251.0" type="line"/>
      <point x="54.0" y="445.0" type="line"/>
      <point x="121.0" y="498.0" type="line"/>
      <point x="307.0" y="255.0" type="line"/>
      <point x="121.0" y="12.0" type="line"/>
      <point x="54.0" y="65.0" type="line"/>
    </contour>
    <contour>
      <point x="381.0" y="251.0" type="line"/>
      <point x="231.0" y="445.0" type="line"/>
      <point x="299.0" y="498.0" type="line"/>
      <point x="484.0" y="255.0" type="line"/>
      <point x="299.0" y="12.0" type="line"/>
      <point x="231.0" y="65.0" type="line"/>
    </contour>
  </outline>
</glyph>
<glyph name="AE" format="2">
  <advance width="1196"/>
  <unicode hex="00C6"/>
  <outline>
    <contour>
      <point x="179.0" y="200.0" type="line"/>
      <point x="209.0" y="290.0" type="line"/>
      <point x="579.0" y="290.0" type="line"/>
      <point x="609.0" y="200.0" type="line"/>
    </contour>
    <contour>
      <point x="572.0" y="700.0" type="line"/>
      <point x="132.0" y="0.0" type="line"/>
      <point x="10.0" y="0.0" type="line"/>
      <point x="450.0" y="700.0" type="line"/>
    </contour>
    <contour>
      <point x="607.0" y="0.0" type="line"/>
      <point x="607.0" y="100.0" type="line"/>
      <point x="1151.0" y="100.0" type="line"/>
      <point x="1151.0" y="0.0" type="line"/>
    </contour>
    <contour>
      <point x="607.0" y="600.0" type="line"/>
      <point x="607.0" y="700.0" type="line"/>
      <point x="1151.0" y="700.0" type="line"/>
      <point x="1151.0" y="600.0" type="line"/>
    </contour>
    <contour>
      <point x="607.0" y="310.0" type="line"/>
      <point x="607.0" y="405.0" type="line"/>
      <point x="981.0" y="405.0" type="line"/>
      <point x="981.0" y="310.0" type="line"/>
    </contour>
    <contour>
      <point x="535.0" y="700.0" type="line"/>
      <point x="645.0" y="700.0" type="line"/>
      <point x="645.0" y="0.0" type="line"/>
      <point x="535.0" y="0.0" type="line"/>
    </contour>
  </outline>
</glyph>
<glyph name="Oslash" format="2">
  <advance width="910"/>
  <unicode hex="00D8"/>
  <outline>
    <contour>
      <point x="850.0" y="750.0" type="line"/>
      <point x="175.0" y="-50.0" type="line"/>
      <point x="55.0" y="-50.0" type="line"/>
      <point x="730.0" y="750.0" type="line"/>
    </contour>
    <component base="O"/>
  </outline>
</glyph>
<glyph name="Thorn" format="2">
  <advance width="753"/>
  <unicode hex="00DE"/>
  <outline>
    <contour>
      <point x="85.0" y="700.0" type="line"/>
      <point x="195.0" y="700.0" type="line"/>
      <point x="195.0" y="0.0" type="line"/>
      <point x="85.0" y="0.0" type="line"/>
    </contour>
    <contour>
      <point x="132.0" y="471.0" type="line"/>
      <point x="132.0" y="571.0" type="line"/>
      <point x="480.0" y="571.0" type="line" smooth="yes"/>
      <point x="605.0" y="571.0"/>
      <point x="718.0" y="525.0"/>
      <point x="718.0" y="371.0" type="curve" smooth="yes"/>
      <point x="718.0" y="218.0"/>
      <point x="605.0" y="171.0"/>
      <point x="480.0" y="171.0" type="curve" smooth="yes"/>
      <point x="132.0" y="171.0" type="line"/>
      <point x="132.0" y="271.0" type="line"/>
      <point x="470.0" y="271.0" type="line" smooth="yes"/>
      <point x="559.0" y="271.0"/>
      <point x="603.0" y="305.0"/>
      <point x="603.0" y="371.0" type="curve" smooth="yes"/>
      <point x="603.0" y="437.0"/>
      <point x="559.0" y="471.0"/>
      <point x="470.0" y="471.0" type="curve" smooth="yes"/>
    </contour>
  </outline>
</glyph>
<glyph name="Hbar" format="2">
  <advance width="835"/>
  <unicode hex="0126"/>
  <outline>
    <contour>
      <point x="5.0" y="485.0" type="line"/>
      <point x="5.0" y="585.0" type="line"/>
      <point x="830.0" y="585.0" type="line"/>
      <point x="830.0" y="485.0" type="line"/>
    </contour>
    <component base="H"/>
  </outline>
</glyph>
<glyph name="Lslash" format="2">
  <advance width="720"/>
  <unicode hex="0141"/>
  <outline>
    <contour>
      <point x="0.0" y="249.0" type="line"/>
      <point x="0.0" y="369.0" type="line"/>
      <point x="340.0" y="580.0" type="line"/>
      <point x="340.0" y="460.0" type="line"/>
    </contour>
    <component base="L"/>
  </outline>
</glyph>
<glyph name="Eng" format="2">
  <advance width="792"/>
  <unicode hex="014A"/>
  <outline>
    <contour>
      <point x="190.0" y="499.0" type="curve"/>
      <point x="126.0" y="550.0" type="line"/>
      <point x="211.0" y="640.0"/>
      <point x="311.0" y="720.0"/>
      <point x="454.0" y="720.0" type="curve" smooth="yes"/>
      <point x="608.0" y="720.0"/>
      <point x="712.0" y="649.0"/>
      <point x="712.0" y="520.0" type="curve" smooth="yes"/>
      <point x="712.0" y="440.0" type="line"/>
      <point x="597.0" y="440.0" type="line"/>
      <point x="597.0" y="495.0" type="line" smooth="yes"/>
      <point x="597.0" y="594.0"/>
      <point x="521.0" y="620.0"/>
      <point x="431.0" y="620.0" type="curve" smooth="yes"/>
      <point x="325.0" y="620.0"/>
      <point x="234.0" y="570.0"/>
    </contour>
    <contour>
      <point x="85.0" y="700.0" type="line"/>
      <point x="200.0" y="700.0" type="line"/>
      <point x="200.0" y="0.0" type="line"/>
      <point x="85.0" y="0.0" type="line"/>
    </contour>
    <contour>
      <point x="357.0" y="137.0" type="line"/>
      <point x="391.0" y="110.0"/>
      <point x="435.0" y="80.0"/>
      <point x="501.0" y="80.0" type="curve" smooth="yes"/>
      <point x="561.0" y="80.0"/>
      <point x="597.0" y="106.0"/>
      <point x="597.0" y="165.0" type="curve" smooth="yes"/>
      <point x="597.0" y="440.0" type="line"/>
      <point x="712.0" y="440.0" type="line"/>
      <point x="712.0" y="140.0" type="line" smooth="yes"/>
      <point x="712.0" y="31.0"/>
      <point x="608.0" y="-20.0"/>
      <point x="494.0" y="-20.0" type="curve" smooth="yes"/>
      <point x="411.0" y="-20.0"/>
      <point x="341.0" y="20.0"/>
      <point x="296.0" y="50.0" type="curve"/>
    </contour>
  </outline>
</glyph>
<glyph name="OE" format="2">
  <advance width="1271"/>
  <unicode hex="0152"/>
  <outline>
    <contour>
      <point x="405.0" y="700.0" type="curve" smooth="yes"/>
      <point x="720.0" y="700.0" type="line"/>
      <point x="720.0" y="600.0" type="line"/>
      <point x="415.0" y="600.0" type="line" smooth="yes"/>
      <point x="257.0" y="600.0"/>
      <point x="175.0" y="513.0"/>
      <point x="175.0" y="350.0" type="curve" smooth="yes"/>
      <point x="175.0" y="187.0"/>
      <point x="257.0" y="100.0"/>
      <point x="415.0" y="100.0" type="curve" smooth="yes"/>
      <point x="720.0" y="100.0" type="line"/>
      <point x="720.0" y="0.0" type="line"/>
      <point x="405.0" y="0.0" type="line" smooth="yes"/>
      <point x="201.0" y="0.0"/>
      <point x="55.0" y="131.0"/>
      <point x="55.0" y="350.0" type="curve" smooth="yes"/>
      <point x="55.0" y="569.0"/>
      <point x="201.0" y="700.0"/>
    </contour>
    <contour>
      <point x="682.0" y="0.0" type="line"/>
      <point x="682.0" y="100.0" type="line"/>
      <point x="1226.0" y="100.0" type="line"/>
      <point x="1226.0" y="0.0" type="line"/>
    </contour>
    <contour>
      <point x="682.0" y="600.0" type="line"/>
      <point x="682.0" y="700.0" type="line"/>
      <point x="1226.0" y="700.0" type="line"/>
      <point x="1226.0" y="600.0" type="line"/>
    </contour>
    <contour>
      <point x="682.0" y="310.0" type="line"/>
      <point x="682.0" y="405.0" type="line"/>
      <point x="1056.0" y="405.0" type="line"/>
      <point x="1056.0" y="310.0" type="line"/>
    </contour>
    <contour>
      <point x="610.0" y="700.0" type="line"/>
      <point x="720.0" y="700.0" type="line"/>
      <point x="720.0" y="0.0" type="line"/>
      <point x="610.0" y="0.0" type="line"/>
    </contour>
  </outline>
</glyph>
<glyph name="circumflex" format="2">
  <advance width="384"/>
  <unicode hex="02C6"/>
  <outline>
    <contour>
      <point x="192.0" y="884.0" type="line"/>
      <point x="122.0" y="793.0" type="line"/>
      <point x="22.0" y="793.0" type="line"/>
      <point x="152.0" y="943.0" type="line"/>
      <point x="232.0" y="943.0" type="line"/>
      <point x="362.0" y="793.0" type="line"/>
      <point x="262.0" y="793.0" type="line"/>
    </contour>
  </outline>
</glyph>
<glyph name="breve" format="2">
  <advance height="1154" width="279"/>
  <unicode hex="02D8"/>
  <outline>
    <contour>
      <point x="65.0" y="919.0" type="line"/>
      <point x="65.0" y="880.0"/>
      <point x="96.0" y="860.0"/>
      <point x="140.0" y="860.0" type="curve" smooth="yes"/>
      <point x="184.0" y="860.0"/>
      <point x="215.0" y="880.0"/>
      <point x="215.0" y="919.0" type="curve"/>
      <point x="290.0" y="919.0" type="line"/>
      <point x="290.0" y="838.0"/>
      <point x="240.0" y="790.0"/>
      <point x="140.0" y="790.0" type="curve" smooth="yes"/>
      <point x="40.0" y="790.0"/>
      <point x="-10.0" y="838.0"/>
      <point x="-10.0" y="919.0" type="curve"/>
    </contour>
  </outline>
</glyph>
<glyph name="ring" format="2">
  <advance width="319"/>
  <unicode hex="02DA"/>
  <outline>
    <contour>
      <point x="70.0" y="850.0" type="curve" smooth="yes"/>
      <point x="70.0" y="901.0"/>
      <point x="109.0" y="940.0"/>
      <point x="160.0" y="940.0" type="curve" smooth="yes"/>
      <point x="211.0" y="940.0"/>
      <point x="250.0" y="901.0"/>
      <point x="250.0" y="850.0" type="curve" smooth="yes"/>
      <point x="250.0" y="799.0"/>
      <point x="211.0" y="760.0"/>
      <point x="160.0" y="760.0" type="curve" smooth="yes"/>
      <point x="109.0" y="760.0"/>
      <point x="70.0" y="799.0"/>
    </contour>
    <contour>
      <point x="110.0" y="850.0" type="curve" smooth="yes"/>
      <point x="110.0" y="816.0"/>
      <point x="132.0" y="797.0"/>
      <point x="160.0" y="797.0" type="curve" smooth="yes"/>
      <point x="188.0" y="797.0"/>
      <point x="211.0" y="816.0"/>
      <point x="211.0" y="850.0" type="curve" smooth="yes"/>
      <point x="211.0" y="884.0"/>
      <point x="188.0" y="904.0"/>
      <point x="160.0" y="904.0" type="curve" smooth="yes"/>
      <point x="132.0" y="904.0"/>
      <point x="110.0" y="884.0"/>
    </contour>
  </outline>
</glyph>
<glyph name="ogonek" format="2">
  <advance width="549"/>
  <unicode hex="02DB"/>
  <outline>
    <contour>
      <point x="388.0" y="-114.0" type="line"/>
      <point x="374.0" y="-142.0"/>
      <point x="343.0" y="-186.0"/>
      <point x="263.0" y="-186.0" type="curve" smooth="yes"/>
      <point x="192.0" y="-186.0"/>
      <point x="155.0" y="-151.0"/>
      <point x="155.0" y="-91.0" type="curve" smooth="yes"/>
      <point x="155.0" y="-11.0"/>
      <point x="243.0" y="23.0"/>
      <point x="304.0" y="43.0" type="curve"/>
      <point x="316.0" y="24.0" type="line"/>
      <point x="285.0" y="7.0"/>
      <point x="258.0" y="-32.0"/>
      <point x="258.0" y="-75.0" type="curve" smooth="yes"/>
      <point x="258.0" y="-112.0"/>
      <point x="282.0" y="-134.0"/>
      <point x="316.0" y="-134.0" type="curve" smooth="yes"/>
      <point x="344.0" y="-134.0"/>
      <point x="365.0" y="-127.0"/>
      <point x="379.0" y="-108.0" type="curve"/>
    </contour>
  </outline>
</glyph>
<glyph name="tilde" format="2">
  <advance width="447"/>
  <unicode hex="02DC"/>
  <outline>
    <contour>
      <point x="120.0" y="836.0" type="curve"/>
      <point x="36.0" y="836.0" type="line"/>
      <point x="34.0" y="843.0"/>
      <point x="33.0" y="866.0"/>
      <point x="33.0" y="875.0" type="curve" smooth="yes"/>
      <point x="33.0" y="896.0"/>
      <point x="38.847501974" y="931.115134176"/>
      <point x="57.0" y="955.0" type="curve" smooth="yes"/>
      <point x="76.0" y="980.0"/>
      <point x="106.0" y="997.0"/>
      <point x="147.0" y="997.0" type="curve" smooth="yes"/>
      <point x="184.0" y="997.0"/>
      <point x="211.241744428" y="982.976059998"/>
      <point x="232.0" y="961.0" type="curve" smooth="yes"/>
      <point x="252.424804688" y="939.376953125"/>
      <point x="279.0" y="902.0"/>
      <point x="304.0" y="902.0" type="curve" smooth="yes"/>
      <point x="330.0" y="902.0"/>
      <point x="335.0" y="922.0"/>
      <point x="335.0" y="951.0" type="curve" smooth="yes"/>
      <point x="335.0" y="959.0"/>
      <point x="332.0" y="973.0"/>
      <point x="328.0" y="983.0" type="curve"/>
      <point x="414.0" y="983.0" type="line"/>
      <point x="416.0" y="975.0"/>
      <point x="418.0" y="950.0"/>
      <point x="418.0" y="940.0" type="curve" smooth="yes"/>
      <point x="418.0" y="920.0"/>
      <point x="413.16015625" y="881.880859375"/>
      <point x="396.0" y="859.0" type="curve" smooth="yes"/>
      <point x="378.0" y="835.0"/>
      <point x="366.0" y="822.0"/>
      <point x="320.0" y="822.0" type="curve" smooth="yes"/>
      <point x="276.0" y="822.0"/>
      <point x="249.510742188" y="843.541015625"/>
      <point x="229.0" y="865.0" type="curve" smooth="yes"/>
      <point x="210.203125" y="884.666015625"/>
      <point x="184.0" y="917.0"/>
      <point x="149.0" y="917.0" type="curve" smooth="yes"/>
      <point x="118.0" y="917.0"/>
      <point x="111.0" y="888.0"/>
      <point x="111.0" y="863.0" type="curve" smooth="yes"/>
      <point x="111.0" y="856.0"/>
      <point x="114.0" y="844.0"/>
    </contour>
  </outline>
</glyph>
<glyph name="uni0304" format="2">
  <unicode hex="0304"/>
  <outline>
    <contour>
      <point x="-329.0" y="800.0" type="line"/>
      <point x="-329.0" y="880.0" type="line"/>
      <point x="-89.0" y="880.0" type="line"/>
      <point x="-89.0" y="800.0" type="line"/>
    </contour>
  </outline>
</glyph>
<glyph name="uni1E9E" format="2">
  <advance width="861"/>
  <unicode hex="1E9E"/>
  <outline>
    <contour>
      <point x="545.0" y="-12.0" type="curve" smooth="yes"/>
      <point x="439.0" y="-12.0"/>
      <point x="351.0" y="21.0"/>
      <point x="295.0" y="56.0" type="curve"/>
      <point x="339.0" y="147.0" type="line"/>
      <point x="389.0" y="118.0"/>
      <point x="471.0" y="84.0"/>
      <point x="531.0" y="84.0" type="curve" smooth="yes"/>
      <point x="611.0" y="84.0"/>
      <point x="707.0" y="103.0"/>
      <point x="707.0" y="172.0" type="curve" smooth="yes"/>
      <point x="707.0" y="276.0"/>
      <point x="493.0" y="243.0"/>
      <point x="493.0" y="369.0" type="curve" smooth="yes"/>
      <point x="493.0" y="455.0"/>
      <point x="609.0" y="509.0"/>
      <point x="639.0" y="541.0" type="curve"/>
      <point x="609.0" y="569.0"/>
      <point x="531.0" y="611.0"/>
      <point x="422.0" y="611.0" type="curve" smooth="yes"/>
      <point x="292.0" y="611.0"/>
      <point x="188.0" y="577.0"/>
      <point x="188.0" y="419.0" type="curve" smooth="yes"/>
      <point x="190.0" y="0.0" type="line"/>
      <point x="75.0" y="0.0" type="line"/>
      <point x="75.0" y="430.0" type="line" smooth="yes"/>
      <point x="75.0" y="649.0"/>
      <point x="241.0" y="712.0"/>
      <point x="431.0" y="712.0" type="curve" smooth="yes"/>
      <point x="598.0" y="712.0"/>
      <point x="731.0" y="614.0"/>
      <point x="793.0" y="546.0" type="curve"/>
      <point x="743.0" y="500.0"/>
      <point x="615.0" y="436.0"/>
      <point x="615.0" y="384.0" type="curve" smooth="yes"/>
      <point x="615.0" y="312.0"/>
      <point x="831.0" y="335.0"/>
      <point x="831.0" y="179.0" type="curve" smooth="yes"/>
      <point x="831.0" y="65.0"/>
      <point x="713.0" y="-12.0"/>
    </contour>
  </outline>
</glyph>
<glyph name="figuredash" format="2">
  <advance width="446"/>
  <unicode hex="2012"/>
  <outline>
    <contour>
      <point x="20.0" y="235.0" type="line"/>
      <point x="20.0" y="335.0" type="line"/>
      <point x="426.0" y="335.0" type="line"/>
      <point x="426.0" y="235.0" type="line"/>
    </contour>
  </outline>
</glyph>
<glyph name="endash" format="2">
  <advance width="531"/>
  <unicode hex="2013"/>
  <outline>
    <contour>
      <point x="20.0" y="235.0" type="line"/>
      <point x="20.0" y="335.0" type="line"/>
      <point x="511.0" y="335.0" type="line"/>
      <point x="511.0" y="235.0" type="line"/>
    </contour>
  </outline>
</glyph>
<glyph name="emdash" format="2">
  <advance width="815"/>
  <unicode hex="2014"/>
  <outline>
    <contour>
      <point x="20.0" y="235.0" type="line"/>
      <point x="20.0" y="335.0" type="line"/>
      <point x="795.0" y="335.0" type="line"/>
      <point x="795.0" y="235.0" type="line"/>
    </contour>
  </outline>
</glyph>
<glyph name="dagger" format="2">
  <advance width="594"/>
  <unicode hex="2020"/>
  <outline>
    <contour>
      <point x="90.0" y="540.0" type="line"/>
      <point x="505.0" y="540.0" type="line"/>
      <point x="505.0" y="450.0" type="line"/>
      <point x="90.0" y="450.0" type="line"/>
    </contour>
    <contour>
      <point x="245.0" y="700.0" type="line"/>
      <point x="350.0" y="700.0" type="line"/>
      <point x="350.0" y="-150.0" type="line"/>
      <point x="245.0" y="-150.0" type="line"/>
    </contour>
  </outline>
</glyph>
<glyph name="bullet" format="2">
  <advance width="300"/>
  <unicode hex="2022"/>
  <outline>
    <contour>
      <point x="84.0" y="426.0" type="curve" smooth="yes"/>
      <point x="84.0" y="464.0"/>
      <point x="114.0" y="496.0"/>
      <point x="154.0" y="496.0" type="curve" smooth="yes"/>
      <point x="194.0" y="496.0"/>
      <point x="225.0" y="464.0"/>
      <point x="225.0" y="426.0" type="curve" smooth="yes"/>
      <point x="225.0" y="388.0"/>
      <point x="194.0" y="356.0"/>
      <point x="154.0" y="356.0" type="curve" smooth="yes"/>
      <point x="114.0" y="356.0"/>
      <point x="84.0" y="388.0"/>
    </contour>
  </outline>
</glyph>
<glyph name="uni2031" format="2">
  <advance width="1733"/>
  <unicode hex="2031"/>
  <outline>
    <contour>
      <point x="1342.0" y="170.0" type="curve" smooth="yes"/>
      <point x="1342.0" y="264.0"/>
      <point x="1405.0" y="350.0"/>
      <point x="1520.0" y="350.0" type="curve" smooth="yes"/>
      <point x="1635.0" y="350.0"/>
      <point x="1698.0" y="264.0"/>
      <point x="1698.0" y="170.0" type="curve" smooth="yes"/>
      <point x="1698.0" y="76.0"/>
      <point x="1635.0" y="-10.0"/>
      <point x="1520.0" y="-10.0" type="curve" smooth="yes"/>
      <point x="1405.0" y="-10.0"/>
      <point x="1342.0" y="76.0"/>
    </contour>
    <contour>
      <point x="1433.0" y="170.0" type="curve" smooth="yes"/>
      <point x="1433.0" y="119.0"/>
      <point x="1465.0" y="75.0"/>
      <point x="1520.0" y="75.0" type="curve" smooth="yes"/>
      <point x="1575.0" y="75.0"/>
      <point x="1607.0" y="119.0"/>
      <point x="1607.0" y="170.0" type="curve" smooth="yes"/>
      <point x="1607.0" y="221.0"/>
      <point x="1575.0" y="265.0"/>
      <point x="1520.0" y="265.0" type="curve" smooth="yes"/>
      <point x="1465.0" y="265.0"/>
      <point x="1433.0" y="221.0"/>
    </contour>
    <contour>
      <point x="926.0" y="170.0" type="curve" smooth="yes"/>
      <point x="926.0" y="264.0"/>
      <point x="989.0" y="350.0"/>
      <point x="1104.0" y="350.0" type="curve" smooth="yes"/>
      <point x="1219.0" y="350.0"/>
      <point x="1282.0" y="264.0"/>
      <point x="1282.0" y="170.0" type="curve" smooth="yes"/>
      <point x="1282.0" y="76.0"/>
      <point x="1219.0" y="-10.0"/>
      <point x="1104.0" y="-10.0" type="curve" smooth="yes"/>
      <point x="989.0" y="-10.0"/>
      <point x="926.0" y="76.0"/>
    </contour>
    <contour>
      <point x="1017.0" y="170.0" type="curve" smooth="yes"/>
      <point x="1017.0" y="119.0"/>
      <point x="1049.0" y="75.0"/>
      <point x="1104.0" y="75.0" type="curve" smooth="yes"/>
      <point x="1159.0" y="75.0"/>
      <point x="1191.0" y="119.0"/>
      <point x="1191.0" y="170.0" type="curve" smooth="yes"/>
      <point x="1191.0" y="221.0"/>
      <point x="1159.0" y="265.0"/>
      <point x="1104.0" y="265.0" type="curve" smooth="yes"/>
      <point x="1049.0" y="265.0"/>
      <point x="1017.0" y="221.0"/>
    </contour>
    <contour>
      <point x="510.0" y="170.0" type="curve" smooth="yes"/>
      <point x="510.0" y="264.0"/>
      <point x="573.0" y="350.0"/>
      <point x="688.0" y="350.0" type="curve" smooth="yes"/>
      <point x="803.0" y="350.0"/>
      <point x="866.0" y="264.0"/>
      <point x="866.0" y="170.0" type="curve" smooth="yes"/>
      <point x="866.0" y="76.0"/>
      <point x="803.0" y="-10.0"/>
      <point x="688.0" y="-10.0" type="curve" smooth="yes"/>
      <point x="573.0" y="-10.0"/>
      <point x="510.0" y="76.0"/>
    </contour>
    <contour>
      <point x="601.0" y="170.0" type="curve" smooth="yes"/>
      <point x="601.0" y="119.0"/>
      <point x="633.0" y="75.0"/>
      <point x="688.0" y="75.0" type="curve" smooth="yes"/>
      <point x="743.0" y="75.0"/>
      <point x="775.0" y="119.0"/>
      <point x="775.0" y="170.0" type="curve" smooth="yes"/>
      <point x="775.0" y="221.0"/>
      <point x="743.0" y="265.0"/>
      <point x="688.0" y="265.0" type="curve" smooth="yes"/>
      <point x="633.0" y="265.0"/>
      <point x="601.0" y="221.0"/>
    </contour>
    <contour>
      <point x="35.0" y="530.0" type="curve" smooth="yes"/>
      <point x="35.0" y="624.0"/>
      <point x="98.0" y="710.0"/>
      <point x="213.0" y="710.0" type="curve" smooth="yes"/>
      <point x="328.0" y="710.0"/>
      <point x="391.0" y="624.0"/>
      <point x="391.0" y="530.0" type="curve" smooth="yes"/>
      <point x="391.0" y="436.0"/>
      <point x="328.0" y="350.0"/>
      <point x="213.0" y="350.0" type="curve" smooth="yes"/>
      <point x="98.0" y="350.0"/>
      <point x="35.0" y="436.0"/>
    </contour>
    <contour>
      <point x="126.0" y="530.0" type="curve" smooth="yes"/>
      <point x="126.0" y="479.0"/>
      <point x="158.0" y="435.0"/>
      <point x="213.0" y="435.0" type="curve" smooth="yes"/>
      <point x="268.0" y="435.0"/>
      <point x="300.0" y="479.0"/>
      <point x="300.0" y="530.0" type="curve" smooth="yes"/>
      <point x="300.0" y="581.0"/>
      <point x="268.0" y="625.0"/>
      <point x="213.0" y="625.0" type="curve" smooth="yes"/>
      <point x="158.0" y="625.0"/>
      <point x="126.0" y="581.0"/>
    </contour>
    <contour>
      <point x="673.0" y="700.0" type="line"/>
      <point x="788.0" y="700.0" type="line"/>
      <point x="228.0" y="0.0" type="line"/>
      <point x="113.0" y="0.0" type="line"/>
    </contour>
  </outline>
</glyph>
<glyph name="guilsinglleft" format="2">
  <advance width="344"/>
  <unicode hex="2039"/>
  <outline>
    <contour>
      <point x="141.0" y="259.0" type="line"/>
      <point x="291.0" y="65.0" type="line"/>
      <point x="223.0" y="12.0" type="line"/>
      <point x="38.0" y="255.0" type="line"/>
      <point x="223.0" y="498.0" type="line"/>
      <point x="291.0" y="445.0" type="line"/>
    </contour>
  </outline>
</glyph>
<glyph name="guilsinglright" format="2">
  <advance width="344"/>
  <unicode hex="203A"/>
  <outline>
    <contour>
      <point x="203.0" y="251.0" type="line"/>
      <point x="53.0" y="445.0" type="line"/>
      <point x="121.0" y="498.0" type="line"/>
      <point x="306.0" y="255.0" type="line"/>
      <point x="121.0" y="12.0" type="line"/>
      <point x="53.0" y="65.0" type="line"/>
    </contour>
  </outline>
</glyph>
<glyph name="Euro" format="2">
  <advance width="900"/>
  <unicode hex="20AC"/>
  <outline>
    <contour>
      <point x="5.0" y="399.0" type="line"/>
      <point x="5.0" y="439.0" type="line"/>
      <point x="475.0" y="439.0" type="line"/>
      <point x="475.0" y="399.0" type="line"/>
    </contour>
    <contour>
      <point x="5.0" y="279.0" type="line"/>
      <point x="5.0" y="319.0" type="line"/>
      <point x="475.0" y="319.0" type="line"/>
      <point x="475.0" y="279.0" type="line"/>
    </contour>
    <contour>
      <point x="190.0" y="350.0" type="curve" smooth="yes"/>
      <point x="190.0" y="202.0"/>
      <point x="302.0" y="90.0"/>
      <point x="500.0" y="90.0" type="curve" smooth="yes"/>
      <point x="619.0" y="90.0"/>
      <point x="724.0" y="150.0"/>
      <point x="783.0" y="202.0" type="curve"/>
      <point x="845.0" y="115.0" type="line"/>
      <point x="776.0" y="63.0"/>
      <point x="662.0" y="-10.0"/>
      <point x="500.0" y="-10.0" type="curve" smooth="yes"/>
      <point x="237.0" y="-10.0"/>
      <point x="75.0" y="136.0"/>
      <point x="75.0" y="350.0" type="curve" smooth="yes"/>
      <point x="75.0" y="564.0"/>
      <point x="237.0" y="710.0"/>
      <point x="500.0" y="710.0" type="curve" smooth="yes"/>
      <point x="662.0" y="710.0"/>
      <point x="766.0" y="647.0"/>
      <point x="825.0" y="605.0" type="curve"/>
      <point x="764.0" y="516.0" type="line"/>
      <point x="715.0" y="558.0"/>
      <point x="619.0" y="610.0"/>
      <point x="500.0" y="610.0" type="curve" smooth="yes"/>
      <point x="302.0" y="610.0"/>
      <point x="190.0" y="498.0"/>
    </contour>
  </outline>
</glyph>
